<svg version="1.1" id="Layer_1" xmlns="http://www.w3.org/2000/svg" xmlns:xlink="http://www.w3.org/1999/xlink" x="0px" y="0px"
	 width="100%" viewBox="0 0 379 133" enable-background="new 0 0 379 133" xml:space="preserve">
<path fill="#FDFDFD" opacity="1.000000" stroke="none" 
	d="
M269.000000,134.000000 
	C179.333359,134.000000 90.166710,134.000000 1.000048,134.000000 
	C1.000032,89.666702 1.000032,45.333397 1.000016,1.000072 
	C127.333275,1.000048 253.666550,1.000048 379.999878,1.000024 
	C379.999908,45.333263 379.999908,89.666527 379.999939,133.999893 
	C343.166656,134.000000 306.333344,134.000000 269.000000,134.000000 
M168.108109,81.933685 
	C164.747330,82.355370 161.386566,82.777054 157.616257,83.153221 
	C157.067551,83.166229 156.518829,83.179245 155.789352,82.335594 
	C146.857590,82.221436 137.925842,82.107269 128.448105,81.532204 
	C126.194290,80.343689 122.258949,79.455032 121.984085,77.913628 
	C120.918068,71.935638 120.592781,65.734192 120.819611,59.646782 
	C120.992104,55.017475 125.600800,54.427700 129.934982,53.123203 
	C142.948547,53.053719 155.962112,52.984230 169.874512,53.108036 
	C171.252899,53.032745 172.631302,52.957451 174.167999,52.873512 
	C174.167999,49.846493 174.102402,47.262920 174.185059,44.684097 
	C174.282303,41.650406 172.869797,40.565140 169.061493,41.003597 
	C156.049545,41.051601 143.037582,41.099606 129.200897,41.019016 
	C119.144539,41.794701 110.607346,45.313618 108.414200,56.153259 
	C107.124413,62.528057 106.914986,69.444115 107.854218,75.878120 
	C109.649918,88.179184 116.390533,93.363617 129.953598,94.032242 
	C142.965027,93.983124 155.976440,93.934013 169.711441,94.057671 
	C176.056122,91.601517 172.574875,86.107697 174.466568,81.769478 
	C171.966568,81.921875 170.488052,82.012001 168.108109,81.933685 
M266.121185,64.229660 
	C266.068359,67.034401 265.901276,69.844467 266.031677,72.640663 
	C266.071289,73.489548 266.932526,74.300110 267.417450,75.128212 
	C267.969879,74.378868 268.973846,73.645088 269.000275,72.877617 
	C269.152985,68.446632 269.074768,64.007690 269.074768,57.809135 
	C266.169037,59.741989 264.347687,60.953541 262.004211,62.484459 
	C261.273560,63.383942 260.657593,64.420372 259.785278,65.150642 
	C258.493713,66.231903 257.083008,67.680191 255.601425,67.839218 
	C254.672623,67.938904 253.520859,65.961395 252.532654,64.979034 
	C252.738907,65.681366 252.831177,66.526779 253.217300,67.204872 
	C254.150772,68.844208 255.221375,70.405457 256.236694,71.998184 
	C257.787262,70.970993 259.432404,70.059639 260.865967,68.889137 
	C262.953339,67.184845 264.888367,65.293953 266.121185,64.229660 
M307.964600,65.896767 
	C305.191864,62.261887 302.668518,58.185337 296.873047,59.594902 
	C296.873047,64.779686 296.873047,69.858253 296.873047,75.054230 
	C297.779175,75.054230 298.982422,75.126991 298.993317,75.043785 
	C299.508728,71.103111 299.920746,67.148903 300.447662,62.234188 
	C301.886353,63.744041 302.962830,64.873810 304.117126,66.682175 
	C305.313873,68.042351 306.706635,69.277802 307.667664,70.787994 
	C309.844208,74.208397 312.688538,75.783684 316.937927,74.842690 
	C316.937927,69.874924 316.937927,64.969788 316.937927,59.700523 
	C312.545319,59.673500 314.258179,62.942764 314.048370,64.795624 
	C313.783447,67.135567 313.984436,69.528267 313.984436,71.898209 
	C313.590820,72.005669 313.197205,72.113136 312.803558,72.220596 
	C311.179321,70.364624 309.555054,68.508644 307.964600,65.896767 
M214.697952,71.201553 
	C215.819351,71.956665 216.918076,72.748619 218.068558,73.456451 
	C219.199432,74.152206 220.382828,74.762566 221.543182,75.410400 
	C220.083801,70.374924 218.161667,66.172424 215.873962,62.179371 
	C213.389984,57.843719 208.956757,57.731842 206.429321,61.996117 
	C204.009750,66.078369 202.050598,70.433510 199.889084,74.668716 
	C201.803177,74.819298 202.973404,74.101364 204.104187,73.325912 
	C205.106247,72.638748 206.064423,71.887619 207.525787,71.736931 
	C209.670807,71.544434 211.815826,71.351936 214.697952,71.201553 
M42.934238,52.391041 
	C55.593807,52.403584 68.254288,52.337498 80.912323,52.483299 
	C84.124641,52.520302 88.376030,52.294018 88.264671,57.074326 
	C88.160934,61.527298 84.181152,61.123459 81.057762,61.164658 
	C75.276421,61.240925 69.493355,61.186481 63.454353,61.186481 
	C63.454353,65.206642 63.454353,68.764725 63.454353,72.765244 
	C69.193977,72.765244 74.660492,72.606705 80.112404,72.820404 
	C83.811676,72.965408 88.682945,71.767921 89.670105,77.152817 
	C90.388336,81.070740 87.197174,82.700203 79.956047,82.750076 
	C67.304955,82.837227 54.653759,82.909592 41.423111,82.926979 
	C41.329376,83.273720 41.235645,83.620468 40.980263,84.861786 
	C41.037609,87.583824 41.094952,90.305862 41.071434,93.568550 
	C41.374378,93.682922 41.677322,93.797295 42.903988,94.096748 
	C59.262165,92.764946 75.833496,96.826180 92.105431,91.626198 
	C97.217888,89.992416 101.366745,86.884926 101.854828,81.785873 
	C102.489815,75.152115 100.329018,70.056839 94.107582,67.004395 
	C94.788353,66.056831 95.049362,65.273796 95.556290,65.051453 
	C102.235703,62.121803 100.184006,56.131691 99.864151,51.288288 
	C99.542992,46.425114 95.095825,44.274513 90.991623,42.710430 
	C88.441391,41.738552 85.606918,41.066185 82.893570,41.043877 
	C69.255287,40.931747 55.614876,41.078037 41.444309,41.069790 
	C41.341579,41.369770 41.238850,41.669754 40.970734,42.863380 
	C41.029892,45.584820 41.089054,48.306263 41.074547,51.646904 
	C41.394432,51.805843 41.714314,51.964787 42.934238,52.391041 
M289.112152,62.296505 
	C290.452423,62.070190 291.792694,61.843880 293.132935,61.617565 
	C293.061493,61.064957 292.990021,60.512344 292.918549,59.959736 
	C288.216888,59.959736 283.493896,60.236885 278.819794,59.877758 
	C274.584320,59.552338 273.217590,61.764687 272.749573,65.284653 
	C272.017731,70.789078 273.532990,74.502747 277.349091,74.840607 
	C282.516846,75.298141 287.755554,74.954407 292.963806,74.954407 
	C288.427612,69.227478 280.626068,75.210876 275.238068,69.003113 
	C279.165588,69.003113 282.078461,69.002274 284.991333,69.003281 
	C291.321533,69.005470 291.321533,69.005859 291.720581,65.700417 
	C286.511078,65.700417 281.348724,65.700417 275.095306,65.700417 
	C279.356781,60.598480 284.135315,62.945187 289.112152,62.296505 
M197.945328,68.738014 
	C201.406403,63.369251 199.801804,59.730816 193.565781,59.358185 
	C189.019623,59.086529 184.444183,59.305058 179.956299,59.305058 
	C178.776337,71.705940 179.126022,73.649147 182.808441,74.935730 
	C182.918152,73.336067 183.024353,71.787727 183.109375,70.548309 
	C188.099991,70.058182 192.667053,69.609657 197.945328,68.738014 
M324.921570,62.251518 
	C327.158081,61.936020 328.287811,62.585884 328.121124,65.163292 
	C327.909912,68.428978 328.070068,71.718697 328.070068,74.998047 
	C328.699432,75.122681 329.328827,75.247314 329.958191,75.371948 
	C333.497620,71.987045 329.976440,66.581680 332.065247,62.829750 
	C334.528931,62.211639 337.001190,61.591373 339.473480,60.971104 
	C339.400726,60.380699 339.327972,59.790295 339.255219,59.199890 
	C334.215179,59.199890 329.171356,59.092545 324.137573,59.270058 
	C322.757874,59.318707 321.408295,60.220795 320.044891,60.731243 
	C321.365265,61.237610 322.685608,61.743973 324.921570,62.251518 
M225.265350,60.084465 
	C223.736969,59.716114 222.208603,59.347759 219.333633,58.654861 
	C222.665970,62.385384 224.629807,65.839066 227.598221,67.561279 
	C230.694244,69.357506 227.121841,75.362640 233.029007,75.090034 
	C231.533264,67.140892 239.517731,65.007507 241.777161,59.411098 
	C235.563019,57.929459 234.964417,64.678558 230.953583,66.682472 
	C229.194855,64.627441 227.479797,62.623440 225.265350,60.084465 
M244.839966,64.668945 
	C244.839966,68.199928 244.839966,71.730919 244.839966,75.261902 
	C245.568466,75.229271 246.296951,75.196632 247.025452,75.164001 
	C247.025452,73.315170 246.881393,71.451866 247.065216,69.621490 
	C247.256226,67.719475 247.624252,65.806458 248.182968,63.980278 
	C248.554932,62.764519 249.396851,61.692551 250.028427,60.556221 
	C248.481689,60.047935 246.934952,59.539646 244.835297,58.849659 
	C244.835297,61.126827 244.835297,62.433994 244.839966,64.668945 
z"/>
<path fill="#1A1A1A" opacity="1.000000" stroke="none" 
	d="
M41.152298,93.027901 
	C41.094952,90.305862 41.037609,87.583824 41.262001,84.309448 
	C41.777920,83.549271 41.930874,83.292946 42.002609,82.988152 
	C54.653759,82.909592 67.304955,82.837227 79.956047,82.750076 
	C87.197174,82.700203 90.388336,81.070740 89.670105,77.152817 
	C88.682945,71.767921 83.811676,72.965408 80.112404,72.820404 
	C74.660492,72.606705 69.193977,72.765244 63.454353,72.765244 
	C63.454353,68.764725 63.454353,65.206642 63.454353,61.186481 
	C69.493355,61.186481 75.276421,61.240925 81.057762,61.164658 
	C84.181152,61.123459 88.160934,61.527298 88.264671,57.074326 
	C88.376030,52.294018 84.124641,52.520302 80.912323,52.483299 
	C68.254288,52.337498 55.593807,52.403584 42.391548,52.032326 
	C41.702934,51.363262 41.469387,51.147961 41.148212,51.027702 
	C41.089054,48.306263 41.029892,45.584820 41.243874,42.334198 
	C41.760887,41.643402 41.913620,41.419586 41.975212,41.133572 
	C55.614876,41.078037 69.255287,40.931747 82.893570,41.043877 
	C85.606918,41.066185 88.441391,41.738552 90.991623,42.710430 
	C95.095825,44.274513 99.542992,46.425114 99.864151,51.288288 
	C100.184006,56.131691 102.235703,62.121803 95.556290,65.051453 
	C95.049362,65.273796 94.788353,66.056831 94.107582,67.004395 
	C100.329018,70.056839 102.489815,75.152115 101.854828,81.785873 
	C101.366745,86.884926 97.217888,89.992416 92.105431,91.626198 
	C75.833496,96.826180 59.262165,92.764946 42.365009,93.807198 
	C41.659924,93.273972 41.435345,93.110725 41.152298,93.027901 
z"/>
<path fill="#DF051B" opacity="1.000000" stroke="none" 
	d="
M129.034302,93.865326 
	C116.390533,93.363617 109.649918,88.179184 107.854218,75.878120 
	C106.914986,69.444115 107.124413,62.528057 108.414200,56.153259 
	C110.607346,45.313618 119.144539,41.794701 129.928345,41.350395 
	C141.791992,41.789745 152.929230,41.842861 164.063370,42.057461 
	C166.013031,42.095039 167.949615,42.810970 169.985168,43.232872 
	C169.985168,42.815170 169.985168,41.987072 169.985168,41.158974 
	C172.869797,40.565140 174.282303,41.650406 174.185059,44.684097 
	C174.102402,47.262920 174.167999,49.846493 174.167999,52.873512 
	C172.631302,52.957451 171.252899,53.032745 169.120865,52.730568 
	C155.802200,52.254635 143.237228,52.143936 130.672012,52.098408 
	C130.117432,52.096401 129.560669,52.689507 129.004929,53.005402 
	C125.600800,54.427700 120.992104,55.017475 120.819611,59.646782 
	C120.592781,65.734192 120.918068,71.935638 121.984085,77.913628 
	C122.258949,79.455032 126.194290,80.343689 128.724487,82.016289 
	C129.004059,82.669441 129.007263,82.838501 129.005798,83.259010 
	C129.001358,83.678139 129.001602,83.845802 129.001862,84.342941 
	C129.002274,85.111732 129.002655,85.551033 129.002930,86.243195 
	C129.002884,86.664543 129.002960,86.833031 129.003296,87.252975 
	C129.005203,87.672058 129.006882,87.839691 129.007614,88.339989 
	C129.005280,89.116257 129.003860,89.559868 129.111206,90.221939 
	C129.419128,90.713272 129.679810,90.900551 130.271866,91.288185 
	C132.698349,91.715073 134.854980,91.856010 136.747070,92.279846 
	C133.999802,92.996933 131.517059,93.431129 129.034302,93.865326 
z"/>
<path fill="#111111" opacity="1.000000" stroke="none" 
	d="
M288.655090,62.295090 
	C284.135315,62.945187 279.356781,60.598480 275.095306,65.700417 
	C281.348724,65.700417 286.511078,65.700417 291.720581,65.700417 
	C291.321533,69.005859 291.321533,69.005470 284.991333,69.003281 
	C282.078461,69.002274 279.165588,69.003113 275.238068,69.003113 
	C280.626068,75.210876 288.427612,69.227478 292.963806,74.954407 
	C287.755554,74.954407 282.516846,75.298141 277.349091,74.840607 
	C273.532990,74.502747 272.017731,70.789078 272.749573,65.284653 
	C273.217590,61.764687 274.584320,59.552338 278.819794,59.877758 
	C283.493896,60.236885 288.216888,59.959736 292.918549,59.959736 
	C292.990021,60.512344 293.061493,61.064957 293.132935,61.617565 
	C291.792694,61.843880 290.452423,62.070190 288.655090,62.295090 
z"/>
<path fill="#212121" opacity="1.000000" stroke="none" 
	d="
M197.589722,68.949570 
	C192.667053,69.609657 188.099991,70.058182 183.109375,70.548309 
	C183.024353,71.787727 182.918152,73.336067 182.808441,74.935730 
	C179.126022,73.649147 178.776337,71.705940 179.956299,59.305058 
	C184.444183,59.305058 189.019623,59.086529 193.565781,59.358185 
	C199.801804,59.730816 201.406403,63.369251 197.589722,68.949570 
M182.955200,63.665424 
	C183.644623,64.806366 184.205887,66.805008 185.047012,66.930687 
	C187.792969,67.340996 190.661301,67.256866 193.438904,66.957626 
	C194.431717,66.850670 195.299988,65.587906 196.225098,64.852692 
	C195.268280,63.957329 194.342285,62.340179 193.349075,62.297791 
	C189.953110,62.152840 186.533539,62.561272 182.955200,63.665424 
z"/>
<path fill="#1A1A1A" opacity="1.000000" stroke="none" 
	d="
M207.041962,71.164726 
	C206.064423,71.887619 205.106247,72.638748 204.104187,73.325912 
	C202.973404,74.101364 201.803177,74.819298 199.889084,74.668716 
	C202.050598,70.433510 204.009750,66.078369 206.429321,61.996117 
	C208.956757,57.731842 213.389984,57.843719 215.873962,62.179371 
	C218.161667,66.172424 220.083801,70.374924 221.543182,75.410400 
	C220.382828,74.762566 219.199432,74.152206 218.068558,73.456451 
	C216.918076,72.748619 215.819351,71.956665 214.285248,70.781418 
	C214.071716,69.783676 214.583817,69.087410 214.417343,68.648483 
	C213.574539,66.426224 212.555435,64.270828 211.598114,62.091988 
	C210.402573,63.223724 208.777466,64.152458 208.122009,65.539444 
	C207.331940,67.211296 207.365128,69.272217 207.041962,71.164726 
z"/>
<path fill="#2A2A2A" opacity="1.000000" stroke="none" 
	d="
M324.463776,62.250927 
	C322.685608,61.743973 321.365265,61.237610 320.044891,60.731243 
	C321.408295,60.220795 322.757874,59.318707 324.137573,59.270058 
	C329.171356,59.092545 334.215179,59.199890 339.255219,59.199890 
	C339.327972,59.790295 339.400726,60.380699 339.473480,60.971104 
	C337.001190,61.591373 334.528931,62.211639 332.065247,62.829750 
	C329.976440,66.581680 333.497620,71.987045 329.958191,75.371948 
	C329.328827,75.247314 328.699432,75.122681 328.070068,74.998047 
	C328.070068,71.718697 327.909912,68.428978 328.121124,65.163292 
	C328.287811,62.585884 327.158081,61.936020 324.463776,62.250927 
z"/>
<path fill="#222222" opacity="1.000000" stroke="none" 
	d="
M225.515045,60.351952 
	C227.479797,62.623440 229.194855,64.627441 230.953583,66.682472 
	C234.964417,64.678558 235.563019,57.929459 241.777161,59.411098 
	C239.517731,65.007507 231.533264,67.140892 233.029007,75.090034 
	C227.121841,75.362640 230.694244,69.357506 227.598221,67.561279 
	C224.629807,65.839066 222.665970,62.385384 219.333633,58.654861 
	C222.208603,59.347759 223.736969,59.716114 225.515045,60.351952 
z"/>
<path fill="#181818" opacity="1.000000" stroke="none" 
	d="
M304.039337,66.003586 
	C302.962830,64.873810 301.886353,63.744041 300.447662,62.234188 
	C299.920746,67.148903 299.508728,71.103111 298.993317,75.043785 
	C298.982422,75.126991 297.779175,75.054230 296.873047,75.054230 
	C296.873047,69.858253 296.873047,64.779686 296.873047,59.594902 
	C302.668518,58.185337 305.191864,62.261887 307.550507,66.298080 
	C306.104065,66.467461 305.071686,66.235527 304.039337,66.003586 
z"/>
<path fill="#090909" opacity="1.000000" stroke="none" 
	d="
M304.078247,66.342880 
	C305.071686,66.235527 306.104065,66.467461 307.533600,66.676025 
	C309.555054,68.508644 311.179321,70.364624 312.803558,72.220596 
	C313.197205,72.113136 313.590820,72.005669 313.984436,71.898209 
	C313.984436,69.528267 313.783447,67.135567 314.048370,64.795624 
	C314.258179,62.942764 312.545319,59.673500 316.937927,59.700523 
	C316.937927,64.969788 316.937927,69.874924 316.937927,74.842690 
	C312.688538,75.783684 309.844208,74.208397 307.667664,70.787994 
	C306.706635,69.277802 305.313873,68.042351 304.078247,66.342880 
z"/>
<path fill="#282828" opacity="1.000000" stroke="none" 
	d="
M266.888336,63.482632 
	C264.888367,65.293953 262.953339,67.184845 260.865967,68.889137 
	C259.432404,70.059639 257.787262,70.970993 256.236694,71.998184 
	C255.221375,70.405457 254.150772,68.844208 253.217300,67.204872 
	C252.831177,66.526779 252.738907,65.681366 252.532654,64.979034 
	C253.520859,65.961395 254.672623,67.938904 255.601425,67.839218 
	C257.083008,67.680191 258.493713,66.231903 259.785278,65.150642 
	C260.657593,64.420372 261.273560,63.383942 262.631622,62.292168 
	C264.468811,62.560795 265.678558,63.021713 266.888336,63.482632 
z"/>
<path fill="#DC0000" opacity="1.000000" stroke="none" 
	d="
M129.493958,93.948784 
	C131.517059,93.431129 133.999802,92.996933 136.750488,92.039604 
	C137.018402,91.516464 137.034210,91.036118 137.480652,91.033089 
	C140.553177,91.283974 143.175674,91.703079 145.806046,91.760292 
	C153.201828,91.921165 160.600845,91.933037 168.240097,92.008430 
	C168.481598,92.013206 168.964584,92.022644 168.969620,92.333008 
	C168.979065,93.057220 168.983475,93.471062 168.987885,93.884903 
	C155.976440,93.934013 142.965027,93.983124 129.493958,93.948784 
z"/>
<path fill="#CECECE" opacity="1.000000" stroke="none" 
	d="
M207.283875,71.450829 
	C207.365128,69.272217 207.331940,67.211296 208.122009,65.539444 
	C208.777466,64.152458 210.402573,63.223724 211.598114,62.091988 
	C212.555435,64.270828 213.574539,66.426224 214.417343,68.648483 
	C214.583817,69.087410 214.071716,69.783676 213.916687,70.760353 
	C211.815826,71.351936 209.670807,71.544434 207.283875,71.450829 
z"/>
<path fill="#0B0B0B" opacity="1.000000" stroke="none" 
	d="
M266.504761,63.856148 
	C265.678558,63.021713 264.468811,62.560795 262.892670,62.132484 
	C264.347687,60.953541 266.169037,59.741989 269.074768,57.809135 
	C269.074768,64.007690 269.152985,68.446632 269.000275,72.877617 
	C268.973846,73.645088 267.969879,74.378868 267.417450,75.128220 
	C266.932526,74.300110 266.071289,73.489548 266.031677,72.640663 
	C265.901276,69.844467 266.068359,67.034401 266.504761,63.856148 
z"/>
<path fill="#0E0E0E" opacity="1.000000" stroke="none" 
	d="
M244.837631,64.205048 
	C244.835297,62.433994 244.835297,61.126827 244.835297,58.849659 
	C246.934952,59.539646 248.481689,60.047935 250.028427,60.556221 
	C249.396851,61.692551 248.554932,62.764519 248.182968,63.980278 
	C247.624252,65.806458 247.256226,67.719475 247.065216,69.621490 
	C246.881393,71.451866 247.025452,73.315170 247.025452,75.164001 
	C246.296951,75.196632 245.568466,75.229271 244.839966,75.261902 
	C244.839966,71.730919 244.839966,68.199928 244.837631,64.205048 
z"/>
<path fill="#DC002A" opacity="1.000000" stroke="none" 
	d="
M129.003052,85.990341 
	C129.002655,85.551033 129.002274,85.111732 129.470261,84.337570 
	C137.630630,83.991379 145.322617,83.980049 153.528564,83.944931 
	C154.685043,83.678177 155.327576,83.435211 155.970123,83.192253 
	C156.518829,83.179245 157.067551,83.166229 158.279297,83.452148 
	C159.623062,83.823494 160.303787,83.895905 161.429871,83.979446 
	C164.248520,83.991447 166.621811,83.992317 168.996948,83.996590 
	C168.998779,84.000000 168.995972,84.007195 168.998535,84.255966 
	C169.001114,84.504745 169.008545,85.002434 168.563995,85.005142 
	C165.747513,85.009064 163.375580,85.010284 160.559082,85.006355 
	C157.741898,85.004608 155.369247,85.008003 152.529449,85.011147 
	C144.375870,85.337379 136.689468,85.663857 129.003052,85.990341 
z"/>
<path fill="#E20319" opacity="1.000000" stroke="none" 
	d="
M169.349670,93.971283 
	C168.983475,93.471062 168.979065,93.057220 168.981354,92.079636 
	C168.991409,91.347046 168.994797,91.178185 168.999222,90.755188 
	C169.000076,90.331642 168.999863,90.162224 168.998779,89.743683 
	C168.997910,89.494568 168.995346,88.996330 168.996857,88.747574 
	C168.998352,88.498825 169.000000,88.001221 168.999359,87.751129 
	C168.997696,87.334305 168.996704,87.167580 168.997864,87.000427 
	C169.000000,86.999992 168.997757,86.995613 169.218262,86.888023 
	C169.714081,86.579468 169.898575,86.315109 169.993469,85.742409 
	C169.994659,85.497444 169.999939,85.007538 170.156982,84.857559 
	C169.874664,84.474121 169.435318,84.240662 168.995972,84.007202 
	C168.995972,84.007195 168.998779,84.000000 168.998291,83.746689 
	C168.997818,83.493378 168.994507,82.993416 168.996704,82.770569 
	C168.998917,82.547714 169.009552,82.102119 169.009552,82.102127 
	C170.488052,82.012001 171.966568,81.921875 174.466568,81.769478 
	C172.574875,86.107697 176.056122,91.601517 169.349670,93.971283 
z"/>
<path fill="#D00007" opacity="1.000000" stroke="none" 
	d="
M169.523331,41.081284 
	C169.985168,41.987072 169.985168,42.815170 169.985168,43.232872 
	C167.949615,42.810970 166.013031,42.095039 164.063370,42.057461 
	C152.929230,41.842861 141.791992,41.789745 130.340729,41.414688 
	C143.037582,41.099606 156.049545,41.051601 169.523331,41.081284 
z"/>
<path fill="#D20500" opacity="1.000000" stroke="none" 
	d="
M129.469955,53.064304 
	C129.560669,52.689507 130.117432,52.096401 130.672012,52.098408 
	C143.237228,52.143936 155.802200,52.254635 168.671448,52.633919 
	C155.962112,52.984230 142.948547,53.053719 129.469955,53.064304 
z"/>
<path fill="#D40000" opacity="1.000000" stroke="none" 
	d="
M155.879730,82.763924 
	C155.327576,83.435211 154.685043,83.678177 153.226837,83.656616 
	C144.610947,83.263916 136.810699,83.135735 129.010452,83.007553 
	C129.007263,82.838501 129.004059,82.669441 128.997467,82.246742 
	C137.925842,82.107269 146.857590,82.221436 155.879730,82.763924 
z"/>
<path fill="#D40000" opacity="1.000000" stroke="none" 
	d="
M168.558838,82.017899 
	C169.009552,82.102119 168.998917,82.547714 168.567841,82.773102 
	C165.752701,83.321770 163.368607,83.645050 160.984528,83.968323 
	C160.303787,83.895905 159.623062,83.823494 158.484055,83.474915 
	C161.386566,82.777054 164.747330,82.355370 168.558838,82.017899 
z"/>
<path fill="#020202" opacity="1.000000" stroke="none" 
	d="
M41.111866,93.298225 
	C41.435345,93.110725 41.659924,93.273972 41.903149,93.714661 
	C41.677322,93.797295 41.374378,93.682922 41.111866,93.298225 
z"/>
<path fill="#010101" opacity="1.000000" stroke="none" 
	d="
M41.712860,82.957565 
	C41.930874,83.292946 41.777920,83.549271 41.342827,83.862167 
	C41.235645,83.620468 41.329376,83.273720 41.712860,82.957565 
z"/>
<path fill="#020202" opacity="1.000000" stroke="none" 
	d="
M41.111382,51.337303 
	C41.469387,51.147961 41.702934,51.363262 41.941528,51.898670 
	C41.714314,51.964787 41.394432,51.805843 41.111382,51.337303 
z"/>
<path fill="#010101" opacity="1.000000" stroke="none" 
	d="
M41.709763,41.101681 
	C41.913620,41.419586 41.760887,41.643402 41.326569,41.887375 
	C41.238850,41.669754 41.341579,41.369770 41.709763,41.101681 
z"/>
<path fill="#E30029" opacity="1.000000" stroke="none" 
	d="
M168.999664,89.992805 
	C168.999863,90.162224 169.000076,90.331642 168.778549,90.860031 
	C168.279648,91.415710 168.093567,91.677269 167.998596,92.003654 
	C160.600845,91.933037 153.201828,91.921165 145.806046,91.760292 
	C143.175674,91.703079 140.553177,91.283974 137.039444,91.019112 
	C134.101868,91.006187 132.051941,91.004211 130.001999,91.002235 
	C129.679810,90.900551 129.419128,90.713272 129.579575,90.219772 
	C142.959351,89.997032 155.979507,89.994919 168.999664,89.992805 
z"/>
<path fill="#DC0310" opacity="1.000000" stroke="none" 
	d="
M169.999939,85.007538 
	C169.999939,85.007538 169.994659,85.497444 169.775543,85.853218 
	C169.284866,86.410591 169.098648,86.672798 168.997757,86.995613 
	C168.997757,86.995613 169.000000,86.999992 168.529694,87.000320 
	C155.040604,87.000938 142.021835,87.001236 129.003052,87.001526 
	C129.002960,86.833031 129.002884,86.664543 129.002930,86.243195 
	C136.689468,85.663857 144.375870,85.337379 152.799469,85.290848 
	C156.025650,85.384361 158.514633,85.197929 161.003632,85.011497 
	C163.375580,85.010284 165.747513,85.009064 168.811798,85.005875 
	C169.504135,85.003906 169.999939,85.007538 169.999939,85.007538 
z"/>
<path fill="#E2010C" opacity="1.000000" stroke="none" 
	d="
M168.998779,89.743683 
	C155.979507,89.994919 142.959351,89.997032 129.470825,90.001312 
	C129.003860,89.559868 129.005280,89.116257 129.450821,88.339676 
	C132.263443,88.008362 134.631912,88.010017 137.296219,88.305260 
	C143.399597,88.730682 149.207169,88.862526 155.428741,88.993195 
	C157.222824,88.992569 158.602859,88.993126 160.434540,88.996071 
	C163.589233,88.997749 166.292282,88.997040 168.995346,88.996330 
	C168.995346,88.996330 168.997910,89.494568 168.998779,89.743683 
z"/>
<path fill="#EB0020" opacity="1.000000" stroke="none" 
	d="
M159.982910,88.993675 
	C158.602859,88.993126 157.222824,88.992569 155.131241,88.698730 
	C148.613266,88.274200 142.806839,88.142937 137.000397,88.011673 
	C134.631912,88.010017 132.263443,88.008362 129.451752,88.007019 
	C129.006882,87.839691 129.005203,87.672058 129.003296,87.252975 
	C142.021835,87.001236 155.040604,87.000938 168.527557,87.000755 
	C168.996704,87.167580 168.997696,87.334305 168.559891,87.750648 
	C165.408356,88.331398 162.695633,88.662537 159.982910,88.993675 
z"/>
<path fill="#E8020E" opacity="1.000000" stroke="none" 
	d="
M129.005798,83.259010 
	C136.810699,83.135735 144.610947,83.263916 152.712906,83.680405 
	C145.322617,83.980049 137.630630,83.991379 129.470230,84.008087 
	C129.001602,83.845802 129.001358,83.678139 129.005798,83.259010 
z"/>
<path fill="#DA0616" opacity="1.000000" stroke="none" 
	d="
M130.271866,91.288185 
	C132.051941,91.004211 134.101868,91.006187 136.593018,91.022141 
	C137.034210,91.036118 137.018402,91.516464 137.014999,91.756706 
	C134.854980,91.856010 132.698349,91.715073 130.271866,91.288185 
z"/>
<path fill="#F4F4F4" opacity="1.000000" stroke="none" 
	d="
M183.039093,63.212013 
	C186.533539,62.561272 189.953110,62.152840 193.349075,62.297791 
	C194.342285,62.340179 195.268280,63.957329 196.225098,64.852692 
	C195.299988,65.587906 194.431717,66.850670 193.438904,66.957626 
	C190.661301,67.256866 187.792969,67.340996 185.047012,66.930687 
	C184.205887,66.805008 183.644623,64.806366 183.039093,63.212013 
z"/>
<path fill="#DA0616" opacity="1.000000" stroke="none" 
	d="
M168.240097,92.008430 
	C168.093567,91.677269 168.279648,91.415710 168.777496,91.114151 
	C168.994797,91.178185 168.991409,91.347046 168.976318,91.769272 
	C168.964584,92.022644 168.481598,92.013206 168.240097,92.008430 
z"/>
<path fill="#DF051B" opacity="1.000000" stroke="none" 
	d="
M160.559082,85.006355 
	C158.514633,85.197929 156.025650,85.384361 153.266632,85.291100 
	C155.369247,85.008003 157.741898,85.004608 160.559082,85.006355 
z"/>
<path fill="#E8020E" opacity="1.000000" stroke="none" 
	d="
M161.429871,83.979454 
	C163.368607,83.645050 165.752701,83.321770 168.565643,82.995956 
	C168.994507,82.993416 168.997818,83.493378 168.996460,83.743279 
	C166.621811,83.992317 164.248520,83.991447 161.429871,83.979454 
z"/>
<path fill="#DF051B" opacity="1.000000" stroke="none" 
	d="
M170.156982,84.857559 
	C169.999939,85.007538 169.504135,85.003906 169.256348,85.003174 
	C169.008545,85.002434 169.001114,84.504745 168.998535,84.255974 
	C169.435318,84.240662 169.874664,84.474121 170.156982,84.857559 
z"/>
<path fill="#D60416" opacity="1.000000" stroke="none" 
	d="
M160.434540,88.996071 
	C162.695633,88.662537 165.408356,88.331398 168.560547,88.000740 
	C169.000000,88.001221 168.998352,88.498825 168.996857,88.747574 
	C166.292282,88.997040 163.589233,88.997749 160.434540,88.996071 
z"/>
<path fill="#DF051B" opacity="1.000000" stroke="none" 
	d="
M169.218262,86.888023 
	C169.098648,86.672798 169.284866,86.410591 169.774353,86.098183 
	C169.898575,86.315109 169.714081,86.579468 169.218262,86.888023 
z"/>
<path fill="#D60416" opacity="1.000000" stroke="none" 
	d="
M137.296219,88.305252 
	C142.806839,88.142937 148.613266,88.274200 154.717224,88.699913 
	C149.207169,88.862526 143.399597,88.730682 137.296219,88.305252 
z"/>
</svg>