<?xml version="1.0" standalone="no"?>
<!DOCTYPE svg PUBLIC "-//W3C//DTD SVG 20010904//EN"
 "http://www.w3.org/TR/2001/REC-SVG-20010904/DTD/svg10.dtd">
<svg version="1.0" xmlns="http://www.w3.org/2000/svg"
 width="1200.000000pt" height="750.000000pt" viewBox="0 0 1200.000000 750.000000"
 preserveAspectRatio="xMidYMid meet">
<metadata>
Created by potrace 1.10, written by Peter Selinger 2001-2011
</metadata>
<g transform="translate(0.000000,750.000000) scale(0.100000,-0.100000)"
fill="#111212" stroke="none">
<path d="M6505 6011 c-6 -11 9 -23 19 -14 9 9 7 23 -3 23 -6 0 -12 -4 -16 -9z"/>
<path d="M5763 5994 c-12 -3 -34 -20 -48 -37 -26 -31 -115 -165 -115 -172 0
-2 -19 -32 -43 -67 -24 -35 -46 -70 -50 -78 -13 -27 -38 -64 -173 -270 -49
-74 -91 -139 -93 -144 -3 -8 -95 -145 -115 -171 -5 -7 -7 -19 -3 -28 5 -13 13
-14 49 -5 24 5 63 8 88 7 75 -4 90 0 100 24 11 24 10 22 88 146 30 47 58 94
63 105 13 29 22 42 122 194 49 74 105 166 126 205 27 51 44 73 59 75 13 2 22
-2 22 -10 0 -14 21 -55 59 -118 11 -19 24 -42 28 -50 3 -8 19 -31 35 -51 15
-20 28 -41 28 -47 0 -5 14 -25 30 -43 17 -19 38 -47 46 -63 20 -36 5 -49 -46
-42 -65 9 -412 8 -421 -1 -6 -6 5 -32 28 -69 21 -33 43 -69 49 -79 9 -17 26
-18 260 -16 l249 2 21 -23 c12 -13 24 -35 28 -50 3 -16 11 -28 16 -28 6 0 10
-7 10 -15 0 -8 9 -24 20 -35 17 -17 29 -20 68 -15 26 4 67 2 91 -3 24 -6 50
-8 57 -5 18 7 18 37 -1 53 -17 14 -158 226 -284 427 -29 46 -118 187 -177 278
-54 83 -56 87 -81 131 -34 62 -64 84 -119 88 -27 3 -59 2 -71 0z m45 -136 c2
-12 -3 -18 -15 -18 -26 0 -47 16 -38 29 10 18 49 9 53 -11z m62 -59 c0 -5 -7
-9 -15 -9 -15 0 -20 12 -9 23 8 8 24 -1 24 -14z m311 -432 c18 -5 21 -11 16
-36 -5 -23 -3 -31 8 -31 18 0 30 -19 18 -31 -6 -6 -20 -6 -37 1 -21 8 -26 15
-21 30 8 24 -11 60 -30 60 -9 0 -15 10 -15 23 0 35 12 41 27 14 7 -14 22 -27
34 -30z m-63 -37 c10 -17 10 -21 -3 -27 -21 -7 -39 11 -32 31 8 22 20 20 35
-4z"/>
<path d="M7135 5990 c-245 -4 -346 -8 -362 -17 -12 -7 -33 -13 -46 -13 -14 0
-30 -7 -37 -15 -7 -8 -17 -15 -21 -15 -36 0 -198 -165 -199 -202 0 -7 -7 -22
-15 -32 -8 -11 -15 -30 -15 -42 0 -12 -6 -37 -13 -55 -16 -40 -15 -166 2 -197
6 -11 11 -32 11 -45 0 -14 7 -30 15 -37 8 -7 15 -20 15 -29 0 -22 23 -52 95
-126 66 -68 106 -94 181 -118 41 -14 107 -17 392 -18 189 -1 345 1 348 4 21
21 94 145 92 156 -3 12 -66 14 -388 15 -384 1 -386 1 -414 24 -16 12 -33 22
-38 22 -12 0 -87 81 -88 94 0 5 -6 17 -13 25 -8 9 -19 47 -27 85 -10 56 -10
78 0 123 20 79 73 150 150 198 l65 40 318 1 c323 2 347 5 347 40 0 7 13 28 29
46 36 42 54 76 46 88 -3 6 -25 9 -48 8 -23 -1 -195 -5 -382 -8z"/>
<path d="M7668 5985 c-2 -5 -2 -216 0 -467 l2 -458 24 -15 c21 -14 84 -16 476
-16 l453 0 25 43 c15 24 34 52 44 62 10 11 18 29 18 41 0 21 -2 21 -215 18
-118 -2 -312 -4 -430 -6 -188 -3 -215 -1 -215 13 -1 25 3 702 4 750 l1 45 -92
0 c-56 1 -94 -3 -95 -10z m152 -851 c0 -16 -16 -19 -25 -4 -8 13 4 32 16 25 5
-4 9 -13 9 -21z"/>
<path d="M9339 5990 c-196 -3 -301 -9 -310 -16 -8 -6 -30 -14 -50 -18 -20 -3
-44 -15 -54 -26 -10 -11 -24 -20 -31 -20 -28 0 -132 -122 -170 -198 l-38 -77
0 -135 c1 -142 0 -139 59 -238 57 -95 120 -152 219 -197 l75 -34 351 -2 c349
-1 380 2 380 33 0 5 16 30 35 56 42 54 44 89 5 83 -14 -2 -169 -5 -345 -8
-328 -4 -356 -2 -434 36 -36 18 -131 103 -131 118 0 6 -9 18 -20 28 -22 20
-26 45 -7 46 6 0 191 0 409 -1 l398 -1 11 28 c10 27 73 111 94 125 30 21 -48
24 -455 18 -481 -6 -489 -6 -458 42 37 56 115 131 162 156 l51 27 320 1 320 1
19 34 c11 19 34 53 53 76 53 67 49 72 -64 70 -54 -1 -231 -4 -394 -7z m-513
-418 c11 -8 34 -66 34 -88 0 -15 -35 -54 -49 -54 -4 0 -11 29 -15 65 -8 79 -1
98 30 77z"/>
<path d="M9952 5993 c-20 -8 -62 -80 -62 -107 0 -34 29 -81 61 -100 15 -9 46
-16 68 -16 34 0 47 6 75 35 18 19 36 47 39 62 6 30 -23 99 -51 121 -15 12
-104 16 -130 5z m22 -96 c-4 -20 0 -26 26 -37 27 -11 33 -11 41 1 5 8 9 19 9
25 0 16 31 27 43 15 13 -13 2 -40 -20 -48 -10 -4 -24 -15 -31 -25 -19 -26 -34
-23 -75 17 -42 41 -43 43 -19 61 25 20 33 17 26 -9z"/>
<path d="M2700 5975 c-14 -8 -37 -14 -51 -15 -15 0 -32 -7 -39 -15 -7 -8 -17
-15 -22 -15 -22 0 -154 -121 -169 -155 -5 -11 -21 -40 -34 -64 -14 -24 -25
-54 -25 -67 0 -12 -5 -35 -10 -50 -18 -45 -19 -103 -4 -161 8 -30 14 -65 14
-77 0 -13 7 -26 15 -30 8 -3 15 -16 15 -29 0 -50 129 -182 225 -228 l70 -34
409 -3 c364 -2 414 -1 455 14 25 10 53 23 62 31 8 7 21 13 28 13 20 0 155 143
175 185 10 22 22 48 28 58 17 34 29 189 19 252 -16 104 -67 209 -128 266 -50
46 -150 109 -174 109 -13 1 -35 7 -49 15 -20 12 -94 14 -405 14 -311 0 -385
-2 -405 -14z m783 -178 c14 -9 33 -17 41 -17 20 0 99 -81 130 -134 23 -39 26
-56 26 -134 0 -110 -19 -158 -87 -222 -98 -92 -132 -99 -472 -100 -364 0 -423
13 -518 114 -57 61 -77 124 -71 225 4 66 10 86 37 131 39 64 56 82 101 106 19
10 42 24 50 31 22 17 92 21 431 19 272 -1 308 -3 332 -19z"/>
<path d="M3957 5984 c-3 -4 -2 -15 3 -25 12 -21 16 -785 5 -871 -4 -32 -3 -58
1 -59 5 -1 51 -3 102 -5 l93 -4 -1 398 -2 397 339 0 338 0 37 -29 c63 -51 76
-164 24 -218 -54 -56 -68 -59 -364 -58 -149 1 -277 -2 -283 -5 -13 -8 18 -45
37 -45 8 0 19 -9 26 -20 7 -11 17 -20 21 -20 12 0 232 -186 342 -288 105 -99
109 -101 230 -107 61 -2 119 -6 130 -7 29 -4 31 29 3 52 -13 11 -27 19 -32 20
-5 0 -32 19 -60 43 -71 61 -197 153 -219 161 -11 3 -17 13 -15 23 3 15 15 18
70 20 80 2 143 22 199 63 47 34 55 44 93 115 38 75 50 152 31 206 -8 24 -15
54 -15 65 0 12 -7 24 -15 28 -8 3 -15 12 -15 20 0 24 -79 94 -142 126 l-61 30
-447 0 c-246 0 -450 -3 -453 -6z m726 -573 c17 -6 17 -8 4 -20 -9 -7 -19 -26
-22 -42 -6 -28 -25 -51 -25 -30 0 6 -9 11 -20 11 -14 0 -20 7 -20 24 0 25 -16
36 -55 36 -13 0 -26 4 -30 9 -8 15 137 25 168 12z"/>
<path d="M4490 4670 l0 -180 193 2 192 3 -5 35 c-6 45 -6 223 0 275 l5 40
-193 3 -192 2 0 -180z m248 53 c28 -24 37 -73 18 -98 -11 -16 -26 -20 -68 -20
-77 0 -88 7 -88 55 0 53 27 80 79 80 23 0 47 -7 59 -17z"/>
<path d="M9980 4382 c-52 -19 -115 -81 -123 -121 -11 -53 8 -139 39 -177 40
-50 161 -94 178 -65 3 5 21 12 39 15 75 14 131 128 107 217 -15 55 -86 129
-124 129 -14 0 -26 5 -26 10 0 14 -37 10 -90 -8z m145 -71 c17 -15 37 -46 44
-68 12 -36 11 -47 -4 -87 -10 -25 -21 -46 -25 -46 -4 0 -19 14 -34 30 l-27 31
26 30 c31 38 31 52 0 84 -20 19 -36 25 -68 25 -66 0 -70 -7 -72 -109 -1 -70 1
-91 12 -96 24 -9 34 5 31 43 -4 51 16 51 47 -2 14 -24 33 -47 41 -50 32 -12 0
-26 -59 -26 -49 1 -67 5 -87 23 -32 28 -50 68 -50 113 0 43 14 71 53 107 26
23 40 27 86 27 48 0 61 -4 86 -29z m-55 -46 c19 -23 4 -45 -29 -45 -32 0 -43
16 -29 43 11 21 41 22 58 2z"/>
<path d="M3010 4360 c-19 -5 -48 -12 -65 -16 -82 -20 -206 -130 -221 -196 -4
-20 -11 -28 -22 -26 -14 3 -17 18 -17 97 l0 93 -178 2 -177 1 2 -720 c3 -635
5 -719 18 -715 8 3 91 6 184 6 120 1 171 5 176 14 4 7 4 28 -1 49 -11 47 -11
794 0 890 10 83 41 139 100 178 29 20 47 23 127 23 83 0 97 -3 130 -25 89 -61
97 -114 93 -690 l-3 -440 165 0 c90 -1 173 -3 184 -6 20 -4 20 2 25 491 l5
495 30 59 c23 46 39 64 80 87 44 25 60 29 132 29 77 0 84 -2 125 -33 23 -18
44 -42 46 -52 2 -11 10 -33 18 -50 11 -24 14 -128 16 -530 3 -494 3 -500 23
-496 11 3 96 5 189 6 l169 0 -2 545 c-1 312 -6 551 -12 561 -5 10 -9 30 -9 46
0 15 -7 37 -15 47 -8 11 -15 26 -15 32 0 41 -103 147 -185 190 -105 55 -316
83 -362 48 -10 -7 -26 -14 -36 -14 -48 0 -144 -74 -191 -145 -20 -30 -40 -57
-45 -60 -5 -3 -21 15 -36 40 -50 86 -116 140 -215 174 -45 16 -185 23 -230 11z
m183 -97 c4 -3 2 -12 -4 -19 -8 -10 -1 -11 31 -7 36 5 40 4 40 -17 0 -21 3
-22 41 -16 38 6 41 5 36 -13 -3 -12 6 -33 26 -56 28 -34 32 -36 43 -20 17 23
36 10 34 -23 -3 -41 -1 -52 10 -52 5 0 12 11 16 25 7 27 41 35 50 11 9 -23 44
-7 44 20 0 13 5 24 10 24 6 0 10 -15 10 -33 0 -37 -30 -73 -54 -64 -24 9 -49
-27 -41 -62 8 -38 -1 -57 -20 -41 -23 19 -40 -54 -40 -170 -1 -58 -2 -243 -3
-412 l-2 -308 -41 -21 c-36 -18 -45 -19 -68 -8 -65 32 -61 11 -61 358 0 199 4
311 10 301 8 -12 10 -12 16 3 8 21 -2 50 -15 43 -16 -11 -21 43 -10 111 10 60
9 74 -9 118 -14 35 -25 50 -38 50 -10 0 -20 7 -22 15 -1 8 -16 24 -33 35 -17
11 -34 29 -39 41 -5 13 -21 24 -39 27 -22 5 -31 12 -31 27 0 17 -7 20 -39 20
-22 0 -43 -5 -47 -11 -4 -7 -20 -8 -41 -4 -21 4 -40 2 -49 -6 -21 -17 -18 7 4
29 10 10 25 27 33 38 28 38 84 57 164 57 41 0 78 3 81 8 6 10 38 12 47 2z
m695 -7 c24 -2 46 -6 49 -9 3 -3 17 -1 30 4 21 8 30 6 45 -11 10 -11 25 -20
32 -20 7 0 37 -22 67 -50 59 -54 72 -59 89 -32 11 16 11 16 6 -2 -4 -10 6 -48
21 -85 l28 -66 3 -466 3 -466 -24 -29 c-22 -25 -32 -29 -77 -29 -82 0 -80 -10
-82 354 -2 174 -1 350 1 391 4 102 -7 180 -24 180 -8 0 -26 25 -41 56 l-26 56
21 14 c12 8 21 22 21 30 0 21 -38 17 -45 -6 -8 -26 -18 -25 -52 4 l-28 25 25
10 c20 9 13 10 -33 5 -48 -5 -60 -4 -71 11 -10 14 -28 18 -82 18 -38 0 -88 -3
-111 -7 -26 -5 -43 -5 -43 1 0 9 68 43 87 43 6 0 33 20 59 45 42 39 53 45 79
40 17 -3 49 -8 73 -9z m-1326 -69 c-2 -11 7 -21 25 -28 31 -11 62 -42 81 -79
6 -14 17 -33 24 -42 10 -14 9 -22 -8 -45 -12 -16 -25 -40 -29 -53 -4 -14 -15
-33 -24 -44 -14 -16 -17 -68 -21 -437 -5 -418 -5 -419 -28 -441 -16 -17 -33
-22 -62 -22 -50 2 -76 24 -83 72 -4 20 -7 269 -7 552 l-1 514 26 19 c18 14 24
25 19 39 -5 17 -1 19 43 16 39 -2 47 -6 45 -21z m192 -93 c20 -8 11 -24 -15
-24 -19 0 -25 11 -12 23 8 8 8 8 27 1z"/>
<path d="M2975 4210 c-4 -6 5 -10 19 -10 14 0 26 5 26 10 0 6 -9 10 -19 10
-11 0 -23 -4 -26 -10z"/>
<path d="M3170 4050 c0 -11 5 -20 10 -20 6 0 10 9 10 20 0 11 -4 20 -10 20 -5
0 -10 -9 -10 -20z"/>
<path d="M4046 4001 c-4 -6 -3 -19 3 -28 9 -17 10 -17 17 0 8 21 -10 45 -20
28z"/>
<path d="M2634 4016 c-4 -10 -2 -22 4 -28 8 -8 13 -7 18 6 4 10 2 22 -4 28 -8
8 -13 7 -18 -6z"/>
<path d="M5535 4358 c-22 -3 -65 -10 -95 -15 -30 -5 -64 -14 -75 -20 -11 -5
-38 -19 -60 -29 -82 -38 -192 -136 -218 -194 -4 -8 -16 -30 -28 -49 -26 -43
-45 -97 -70 -196 -27 -108 -31 -483 -5 -533 9 -17 16 -41 16 -54 0 -35 75
-175 125 -234 70 -82 173 -144 270 -164 22 -4 56 -13 75 -19 54 -17 261 -14
284 4 11 8 35 15 54 15 19 0 46 6 60 13 15 8 45 22 67 33 52 24 58 29 135 105
80 80 137 183 160 294 5 22 12 52 16 68 l6 27 -191 0 c-175 0 -191 -1 -191
-17 0 -28 -33 -105 -60 -141 -13 -18 -45 -45 -70 -59 -39 -23 -56 -26 -125
-26 -85 0 -123 15 -183 73 -93 89 -125 439 -55 610 39 96 69 132 135 166 57
29 180 34 228 9 53 -27 120 -128 120 -179 0 -13 6 -28 13 -33 6 -5 93 -8 192
-8 l180 0 3 34 c2 18 -1 38 -7 44 -6 6 -11 26 -11 45 0 19 -6 46 -14 60 -8 15
-22 47 -32 72 -11 25 -41 70 -69 100 -47 53 -126 120 -141 120 -4 0 -32 12
-63 27 -91 42 -276 68 -376 51z m182 -111 c7 -4 22 -2 33 5 18 11 23 10 31 -4
5 -10 28 -22 49 -28 22 -6 40 -15 40 -20 0 -6 17 -10 38 -10 41 0 63 -14 55
-36 -3 -8 11 -21 36 -34 23 -11 41 -26 41 -32 0 -7 12 -29 26 -49 31 -46 27
-99 -8 -99 -12 0 -27 -8 -34 -17 -11 -16 -17 -13 -72 37 -32 30 -64 65 -70 78
-6 12 -18 22 -25 22 -8 0 -20 12 -27 28 -13 26 -14 26 -18 5 -2 -13 -7 -23
-12 -23 -20 0 -40 13 -40 27 0 29 -24 38 -105 37 -44 -1 -92 3 -108 8 -35 13
-61 -5 -52 -39 4 -18 1 -23 -13 -23 -9 0 -25 -9 -35 -20 -18 -22 -42 -26 -52
-10 -11 18 -23 11 -45 -27 -13 -21 -23 -58 -25 -82 -2 -47 -19 -66 -28 -31 -9
34 -27 22 -25 -17 1 -21 -5 -75 -12 -121 -18 -122 -10 -364 12 -389 14 -15 15
-22 6 -31 -9 -9 -8 -16 5 -30 20 -22 22 -43 5 -61 -11 -10 -9 -15 6 -27 25
-18 36 -18 36 1 0 8 5 15 10 15 6 0 10 -18 10 -40 0 -22 5 -40 10 -40 18 0
149 -82 154 -97 3 -8 11 -11 17 -7 19 12 183 13 191 1 4 -7 17 -1 34 16 15 15
42 36 59 47 23 14 32 26 28 38 -2 10 3 24 11 31 14 12 16 10 16 -8 0 -11 6
-21 13 -21 15 0 31 29 47 89 9 33 15 40 33 40 12 -1 29 1 39 5 12 5 18 1 24
-16 l7 -23 8 24 c16 41 34 18 37 -49 3 -62 3 -62 -21 -56 -21 5 -24 3 -19 -19
3 -19 -2 -28 -25 -41 -16 -9 -37 -33 -46 -53 -13 -26 -33 -44 -70 -64 -29 -15
-59 -27 -67 -27 -9 0 -26 -7 -39 -17 -18 -12 -28 -14 -42 -5 -13 8 -20 8 -28
-2 -14 -17 -217 -15 -281 3 -24 7 -79 31 -122 52 -75 38 -78 41 -76 72 3 30 1
32 -26 30 -16 -1 -33 -8 -37 -15 -13 -20 -22 -2 -10 20 16 31 13 53 -8 59 -23
6 -62 89 -86 183 -46 179 -16 514 51 577 13 12 24 29 24 38 0 28 63 128 91
143 14 9 35 29 45 44 13 19 28 28 46 28 15 0 30 5 33 10 12 19 69 43 120 49
68 9 217 7 232 -2z m-339 -248 c-2 -6 -8 -10 -13 -10 -5 0 -11 4 -13 10 -2 6
4 11 13 11 9 0 15 -5 13 -11z m580 -90 c-2 -6 -8 -10 -13 -10 -5 0 -11 4 -13
10 -2 6 4 11 13 11 9 0 15 -5 13 -11z m172 -669 c0 -11 -4 -20 -10 -20 -5 0
-10 9 -10 20 0 11 5 20 10 20 6 0 10 -9 10 -20z"/>
<path d="M5970 3240 c0 -11 5 -20 10 -20 6 0 10 9 10 20 0 11 -4 20 -10 20 -5
0 -10 -9 -10 -20z"/>
<path d="M5270 3185 c0 -9 5 -15 11 -13 6 2 11 8 11 13 0 5 -5 11 -11 13 -6 2
-11 -4 -11 -13z"/>
<path d="M5930 3185 c0 -9 5 -15 11 -13 6 2 11 8 11 13 0 5 -5 11 -11 13 -6 2
-11 -4 -11 -13z"/>
<path d="M6972 4350 c-38 -11 -81 -34 -108 -55 -49 -41 -114 -130 -114 -157 0
-10 -9 -23 -20 -30 -28 -18 -25 -51 6 -65 32 -15 48 -8 41 18 -4 15 0 19 18
19 21 0 23 3 18 34 -6 40 13 59 23 21 10 -39 24 -33 67 31 39 58 100 82 126
51 16 -20 40 -121 31 -131 -11 -11 -30 1 -30 20 0 8 -4 14 -10 14 -5 0 -7 -7
-4 -15 9 -23 -15 -46 -42 -39 -17 4 -30 -1 -49 -20 -26 -26 -45 -27 -45 -1 0
12 -6 12 -37 1 -44 -15 -55 -36 -19 -36 14 0 26 -4 26 -10 0 -5 -13 -10 -28
-10 -16 0 -37 -9 -47 -20 -10 -11 -29 -20 -43 -20 -21 0 -23 -4 -18 -24 4 -18
0 -28 -18 -40 -14 -8 -34 -41 -47 -73 -21 -54 -23 -81 -31 -408 -5 -192 -13
-360 -18 -372 -8 -21 -61 -43 -102 -43 -21 0 -38 49 -38 109 0 25 -8 77 -17
114 -16 62 -16 69 -2 77 23 13 27 345 4 354 -14 5 -14 9 0 42 8 20 15 48 15
61 0 22 -2 24 -15 13 -23 -19 -30 -4 -16 36 9 25 11 57 6 101 -6 56 -4 66 12
78 17 13 17 15 -1 49 -16 31 -17 39 -6 66 10 23 10 34 1 43 -21 21 -12 37 20
37 23 0 32 5 36 20 7 26 27 21 31 -8 5 -30 26 -28 41 4 17 38 35 24 45 -34 5
-29 14 -52 20 -51 27 1 58 61 67 130 6 39 8 73 5 76 -4 5 -314 8 -361 4 -7 -1
-9 -244 -8 -712 l2 -712 186 -1 c117 -1 185 3 186 9 0 6 1 192 2 415 2 327 6
415 18 455 43 144 133 203 324 214 l100 6 6 180 c3 99 3 186 1 193 -6 18 -116
14 -190 -8z"/>
<path d="M7710 4358 c-19 -5 -53 -13 -75 -17 -99 -20 -226 -89 -295 -161 -67
-70 -150 -199 -150 -234 0 -7 -7 -19 -15 -26 -8 -7 -15 -23 -15 -35 0 -12 -7
-39 -15 -59 -13 -30 -15 -73 -12 -229 2 -115 9 -210 16 -237 49 -171 147 -308
282 -397 63 -41 190 -89 269 -102 93 -15 251 -16 277 -3 12 7 39 12 60 12 22
0 48 7 59 15 10 8 27 15 36 15 42 0 180 91 264 174 28 29 104 155 110 186 3
14 12 40 20 58 8 18 14 43 14 55 0 12 7 31 15 41 18 24 21 290 4 346 -5 19
-14 55 -19 80 -18 93 -76 222 -124 273 -14 15 -26 31 -26 35 -2 23 -178 143
-250 170 -117 44 -339 65 -430 40z m153 -100 c37 1 47 -2 47 -14 0 -9 7 -14
18 -12 9 2 17 8 17 15 0 6 3 14 6 18 10 9 172 -45 185 -61 6 -8 19 -14 28 -14
19 0 22 -36 4 -44 -7 -3 -3 -3 10 0 58 14 202 -111 202 -176 0 -15 9 -37 20
-50 11 -13 20 -35 20 -50 0 -14 7 -35 15 -46 16 -22 20 -100 5 -109 -5 -3 -10
-18 -10 -33 1 -26 1 -26 15 -8 12 16 18 17 28 7 10 -10 8 -15 -5 -25 -22 -16
-22 -31 -3 -85 18 -53 8 -118 -18 -113 -22 4 -22 -25 -1 -67 13 -26 14 -38 5
-57 -15 -33 -31 -30 -31 6 0 21 -5 30 -16 30 -14 0 -16 -8 -11 -46 6 -55 -10
-97 -52 -143 -17 -18 -31 -39 -31 -46 0 -8 -8 -11 -19 -8 -11 3 -28 -4 -39
-15 -11 -11 -30 -25 -41 -32 -12 -6 -21 -17 -21 -25 0 -8 -6 -15 -14 -15 -7 0
-19 -7 -26 -15 -20 -24 -96 -54 -167 -66 -91 -16 -272 -8 -303 14 -16 11 -28
13 -40 7 -13 -7 -22 -5 -31 6 -12 14 -30 25 -143 81 -33 17 -52 34 -60 54 -7
21 -16 29 -31 27 -14 -2 -21 3 -23 20 -2 14 -14 27 -29 33 -22 8 -25 14 -20
44 4 22 1 38 -8 45 -8 7 -17 22 -21 33 -3 12 -12 29 -19 37 -16 20 -35 164
-35 268 0 79 29 243 51 283 6 11 21 19 36 19 21 0 24 3 15 12 -18 18 -15 68 3
68 8 0 15 6 15 13 0 6 4 18 9 26 8 13 12 13 27 0 16 -13 17 -11 12 29 -4 23
-2 42 3 42 5 0 9 -4 9 -10 0 -19 17 -10 61 30 24 22 50 40 56 40 7 0 22 9 33
20 15 15 37 20 90 24 76 4 94 10 61 21 -12 3 -21 11 -21 17 0 8 21 8 68 3 37
-5 88 -8 115 -7z m577 -303 c0 -8 -4 -15 -10 -15 -5 0 -10 7 -10 15 0 8 5 15
10 15 6 0 10 -7 10 -15z"/>
<path d="M7910 4170 c0 -5 7 -10 15 -10 8 0 15 5 15 10 0 6 -7 10 -15 10 -8 0
-15 -4 -15 -10z"/>
<path d="M7868 4145 c-10 -10 -123 -27 -178 -26 -43 1 -51 -1 -37 -9 24 -15
21 -27 -12 -44 -27 -14 -29 -14 -34 4 -4 15 -10 18 -24 13 -27 -10 -33 -24
-20 -45 10 -16 8 -22 -13 -39 -30 -22 -31 -24 -68 -69 -54 -66 -56 -72 -60
-293 -4 -192 -3 -209 14 -229 14 -15 16 -22 7 -25 -15 -5 -18 -63 -3 -63 5 0
12 11 16 25 8 31 20 32 29 4 5 -15 2 -25 -9 -31 -19 -11 -21 -44 -3 -55 6 -4
21 -25 31 -45 20 -39 30 -46 41 -28 8 12 25 13 44 1 12 -8 12 -12 2 -25 -12
-14 -10 -16 12 -16 16 0 28 -7 31 -18 6 -18 121 -50 196 -54 121 -7 248 51
332 150 68 79 103 159 114 257 9 82 9 126 -5 255 -5 52 -10 105 -10 118 -1 12
-7 22 -16 22 -8 0 -15 3 -15 8 0 4 -16 31 -35 61 -19 29 -35 57 -35 63 0 14
-45 55 -69 63 -10 3 -25 12 -31 20 -7 8 -28 15 -47 15 -30 0 -34 3 -28 20 7
23 -6 26 -35 8 -16 -10 -24 -10 -40 0 -21 13 -34 15 -42 7z m97 -114 c3 -5 18
-12 34 -16 34 -7 108 -83 133 -135 41 -85 50 -142 46 -298 -2 -103 -7 -155
-15 -164 -7 -6 -13 -22 -13 -34 0 -27 -52 -107 -95 -146 -64 -59 -250 -90
-315 -53 -14 8 -34 14 -46 15 -25 0 -103 75 -125 121 -53 109 -54 116 -53 289
0 135 3 170 17 195 9 17 17 40 17 53 0 12 8 31 18 43 49 59 107 108 133 114
16 4 31 11 34 16 4 5 55 9 115 9 60 0 111 -4 115 -9z"/>
<path d="M8125 4119 c-10 -15 3 -25 16 -12 7 7 7 13 1 17 -6 3 -14 1 -17 -5z"/>
<path d="M9130 4365 c-8 -2 -49 -9 -90 -16 -41 -7 -87 -18 -102 -26 -15 -7
-36 -13 -48 -13 -11 0 -23 -7 -26 -15 -4 -8 -13 -15 -20 -15 -28 0 -148 -133
-167 -185 -10 -28 -25 -65 -33 -83 -20 -47 -19 -200 2 -249 38 -87 51 -107 95
-147 40 -36 120 -82 184 -106 11 -4 36 -13 55 -20 19 -7 55 -15 80 -18 25 -2
50 -8 57 -14 6 -5 38 -12 70 -15 32 -3 66 -10 76 -15 10 -5 39 -13 65 -18 91
-16 149 -47 173 -92 24 -45 -33 -138 -94 -153 -15 -4 -30 -11 -33 -16 -9 -16
-216 -11 -248 6 -15 8 -34 15 -41 15 -8 0 -29 10 -49 23 -36 23 -63 72 -68
122 l-3 30 -190 0 -190 0 2 -30 c4 -60 20 -131 42 -179 22 -49 124 -159 164
-177 12 -5 40 -20 62 -34 22 -13 51 -24 65 -25 14 0 36 -7 50 -15 14 -8 42
-14 62 -15 20 0 48 -4 61 -9 59 -23 328 -9 412 21 17 6 42 13 57 15 15 3 33
11 39 19 6 8 18 14 26 14 20 0 113 73 144 113 15 18 41 60 59 93 31 58 32 62
33 189 0 113 -2 136 -21 175 -45 98 -157 182 -297 225 -33 10 -77 24 -98 31
-20 8 -52 14 -71 14 -18 0 -53 7 -76 15 -23 8 -57 15 -74 15 -17 1 -42 7 -56
15 -14 8 -36 14 -50 15 -14 0 -49 14 -77 30 -52 30 -53 32 -53 76 0 54 35 107
82 123 17 6 86 11 153 11 100 0 124 -3 129 -15 3 -8 15 -15 26 -15 25 0 56
-49 65 -102 4 -22 12 -41 18 -43 7 -2 92 -5 190 -7 l179 -4 -5 45 c-2 25 -10
62 -17 81 -7 19 -20 54 -29 78 -9 24 -38 68 -64 98 -85 95 -155 132 -302 160
-68 13 -255 26 -285 19z m216 -100 c4 -8 16 -15 28 -15 11 0 30 -7 40 -15 11
-8 37 -15 58 -15 46 0 103 -34 118 -71 9 -21 16 -25 37 -21 25 5 25 4 18 -37
-5 -33 -4 -42 9 -47 21 -8 21 -54 1 -54 -8 0 -25 6 -36 13 -17 10 -23 10 -26
0 -6 -18 -32 -16 -39 2 -4 9 -19 15 -39 15 -26 0 -34 5 -39 24 -3 14 -16 26
-31 30 -14 4 -25 13 -25 22 0 11 6 14 23 9 12 -4 26 -11 32 -16 17 -17 25 -9
19 19 -9 36 -9 36 -43 24 -26 -9 -43 -7 -98 14 -109 41 -141 47 -174 30 -25
-12 -30 -12 -41 1 -11 13 -14 13 -29 -6 l-17 -20 -5 20 c-10 37 -44 6 -77 -68
-12 -28 -24 -30 -17 -4 5 20 -9 51 -23 51 -6 0 -10 -11 -10 -25 0 -14 -8 -29
-19 -35 -11 -5 -23 -20 -27 -32 -4 -13 -13 -27 -20 -33 -17 -13 -31 -95 -16
-95 16 0 62 -48 62 -64 0 -8 10 -17 23 -21 20 -6 20 -8 3 -12 -10 -3 -23 0
-29 6 -13 13 -27 14 -27 3 0 -5 12 -15 28 -22 15 -8 36 -22 47 -31 27 -22 81
-39 103 -33 15 5 14 3 -2 -10 -18 -15 -18 -16 8 -27 14 -7 26 -16 26 -20 0 -5
34 -6 75 -2 53 4 75 3 75 -6 0 -6 -5 -11 -11 -11 -5 0 -7 -5 -4 -10 3 -6 25
-10 48 -9 78 2 202 -20 265 -48 50 -22 64 -33 68 -55 7 -31 28 -42 54 -28 29
15 32 12 25 -22 -6 -27 -3 -35 21 -55 28 -22 29 -25 28 -115 -2 -126 -26 -191
-75 -198 -26 -4 -35 -11 -37 -27 -2 -13 -7 -23 -11 -23 -5 0 -11 -13 -14 -29
-6 -29 -55 -59 -76 -47 -6 4 -20 -3 -31 -14 -17 -17 -29 -20 -58 -16 -21 3
-50 0 -67 -7 -21 -10 -37 -11 -56 -3 -21 7 -30 6 -44 -7 -12 -13 -26 -16 -49
-12 -17 4 -44 1 -60 -5 -21 -8 -32 -7 -43 1 -8 7 -39 14 -69 15 -30 2 -75 12
-101 24 -25 11 -51 20 -57 20 -17 0 -76 54 -76 68 0 7 -6 12 -14 12 -7 0 -19
7 -26 15 -10 13 -10 19 4 34 13 14 14 21 5 27 -7 4 -17 0 -24 -9 -29 -40 -63
-5 -50 52 4 20 14 31 31 35 35 9 92 -3 98 -21 4 -11 14 -13 31 -9 23 6 24 5
13 -13 -15 -24 -4 -39 16 -22 18 15 37 6 30 -13 -5 -14 51 -57 107 -80 19 -8
41 -22 49 -30 7 -9 25 -16 41 -16 23 0 29 -5 30 -22 l0 -23 9 23 c5 12 21 27
34 34 22 9 28 8 43 -10 15 -18 25 -20 61 -15 34 4 40 8 31 19 -21 26 31 31 84
9 12 -5 17 -3 17 9 0 9 -8 16 -21 16 -32 0 -13 17 36 31 25 7 45 18 45 24 0 6
14 26 31 45 29 31 32 40 33 107 3 76 -5 97 -23 66 -15 -28 -26 -6 -11 22 16
30 6 44 -20 27 -19 -12 -37 -1 -26 17 7 11 -78 67 -116 76 -15 4 -32 13 -39
21 -6 8 -21 14 -33 14 -12 0 -45 7 -73 15 -36 11 -63 13 -97 6 -42 -8 -74 1
-44 12 10 4 10 7 0 18 -10 11 -16 11 -32 1 -23 -14 -70 -16 -70 -3 0 4 -14 12
-32 17 -36 11 -48 30 -21 37 10 2 -1 2 -24 -1 -28 -3 -43 0 -43 7 0 6 5 11 10
11 6 0 10 5 10 10 0 14 -20 12 -52 -4 -25 -13 -28 -13 -28 2 0 9 -14 37 -30
61 -17 24 -30 49 -30 55 0 6 -11 32 -25 57 -13 26 -21 49 -18 53 13 13 31 5
38 -16 6 -19 8 -20 12 -6 2 10 -7 30 -21 45 -31 33 -33 54 -6 71 11 7 20 19
20 28 0 9 9 27 20 41 11 14 20 34 20 45 0 12 10 23 28 29 15 5 38 25 52 44 18
24 33 35 52 35 15 0 42 9 60 20 18 11 43 20 55 20 12 0 25 5 29 11 3 6 17 8
29 5 13 -3 27 -2 30 4 11 18 47 11 52 -10 7 -26 25 -26 41 0 9 15 19 19 36 14
14 -3 33 -1 43 5 25 14 33 14 39 -4z m-425 -258 c-1 -4 -1 -20 -1 -37 0 -16
-4 -30 -9 -30 -10 0 -21 60 -14 73 6 9 25 5 24 -6z"/>
<path d="M9300 4235 c0 -11 7 -15 23 -13 12 2 22 8 22 13 0 6 -10 11 -22 13
-16 2 -23 -2 -23 -13z"/>
<path d="M9360 4175 c0 -8 5 -15 10 -15 6 0 10 7 10 15 0 8 -4 15 -10 15 -5 0
-10 -7 -10 -15z"/>
<path d="M8845 3130 c-4 -6 -3 -16 3 -22 6 -6 12 -6 17 2 4 6 3 16 -3 22 -6 6
-12 6 -17 -2z"/>
<path d="M10285 4361 c-6 -11 9 -23 19 -14 9 9 7 23 -3 23 -6 0 -12 -4 -16 -9z"/>
<path d="M4492 3595 c3 -714 3 -720 23 -716 11 3 94 6 184 7 115 1 166 5 171
14 4 7 4 28 -1 49 -7 28 -11 1064 -5 1310 l1 55 -188 0 -187 1 2 -720z m223
593 c0 -9 12 -26 28 -38 l27 -21 0 -538 c0 -586 2 -570 -57 -592 -35 -13 -99
6 -115 34 -10 17 -13 146 -15 556 l-1 534 29 27 c20 18 28 32 23 44 -6 15 -1
17 37 14 33 -2 44 -7 44 -20z"/>
<path d="M6716 4003 c-11 -11 -6 -23 9 -23 8 0 15 4 15 9 0 13 -16 22 -24 14z"/>
<path d="M4899 2603 c-14 -3 -16 -47 -17 -423 l0 -420 44 0 c35 0 46 4 52 19
4 11 5 77 2 148 -6 162 1 265 19 271 7 2 22 13 32 23 47 47 125 63 165 34 48
-33 55 -72 54 -273 -1 -103 1 -194 5 -204 8 -20 40 -29 68 -19 22 8 22 13 23
225 1 119 -3 219 -7 222 -5 3 -9 14 -9 25 0 10 -16 36 -35 57 -71 79 -188 81
-268 4 -25 -24 -29 -25 -43 -10 -14 14 -15 33 -6 159 8 126 8 146 -6 157 -16
12 -41 14 -73 5z"/>
<path d="M2960 2551 c-5 -11 -10 -29 -10 -41 0 -42 18 -60 60 -60 45 0 70 20
70 56 0 48 -17 64 -65 64 -34 0 -47 -5 -55 -19z"/>
<path d="M2519 2547 c-73 -19 -118 -55 -131 -105 -6 -23 -14 -45 -19 -48 -14
-8 -11 -59 6 -90 8 -16 15 -36 15 -45 0 -29 65 -78 163 -123 54 -25 112 -61
132 -80 30 -31 35 -42 35 -84 0 -81 -57 -132 -148 -134 -52 -1 -161 34 -178
57 -16 21 -31 19 -50 -10 -29 -44 -1 -77 96 -112 45 -16 187 -19 223 -4 16 6
48 24 71 41 48 32 86 105 86 163 0 46 -25 116 -53 145 -31 33 -103 81 -134 88
-55 14 -138 69 -157 106 -18 32 -18 40 -7 77 17 57 41 78 96 87 57 8 115 -8
151 -41 31 -29 46 -31 64 -10 14 17 6 78 -13 94 -19 15 -126 41 -167 40 -19 0
-56 -6 -81 -12z"/>
<path d="M3812 2344 c-17 -9 -52 -34 -76 -55 -50 -44 -73 -49 -85 -16 -32 83
-186 100 -256 27 -36 -38 -52 -38 -60 1 -8 37 -46 59 -70 39 -13 -11 -15 -50
-13 -294 l3 -281 45 0 45 0 0 200 0 200 30 33 c86 97 177 93 217 -8 6 -14 9
-108 7 -215 -1 -104 -1 -196 0 -202 1 -17 87 -17 97 -1 4 6 6 89 5 184 -3 189
3 243 28 252 9 3 34 18 55 34 54 39 93 37 135 -6 l32 -33 -2 -217 c-1 -119 1
-219 5 -223 11 -12 78 -7 86 7 6 9 6 251 0 452 0 33 -69 96 -126 118 -65 24
-61 24 -102 4z"/>
<path d="M5705 2340 c-85 -21 -128 -52 -164 -115 -29 -51 -31 -60 -32 -172 -1
-140 16 -191 82 -244 55 -43 101 -57 181 -54 92 4 158 41 213 119 l40 58 0
128 c-1 107 -4 132 -18 148 -9 10 -17 23 -17 29 0 11 -35 51 -63 72 -9 8 -50
21 -90 30 -65 15 -78 15 -132 1z m145 -88 c43 -17 68 -54 81 -120 14 -75 8
-166 -15 -211 -19 -36 -98 -91 -132 -91 -13 0 -46 5 -74 11 -43 9 -56 18 -81
51 -28 39 -29 46 -29 142 0 134 11 170 60 202 64 42 115 47 190 16z"/>
<path d="M6404 2341 c-22 -9 -55 -28 -73 -43 -18 -16 -37 -28 -42 -28 -5 0
-15 15 -23 34 -15 37 -49 52 -67 29 -9 -10 -13 -89 -15 -276 -2 -144 -1 -270
2 -279 6 -22 76 -25 92 -5 8 9 8 63 0 185 -13 204 -10 215 70 272 72 52 120
55 162 9 39 -43 44 -77 42 -283 -2 -103 2 -183 7 -190 6 -7 27 -10 49 -8 32 3
41 8 44 25 7 44 -10 423 -20 447 -16 38 -72 91 -120 111 -51 22 -54 22 -108 0z"/>
<path d="M4250 2335 c-9 -10 -12 -114 -11 -402 l0 -388 43 0 43 0 0 55 c0 30
-3 91 -5 135 -5 77 -4 80 18 83 12 2 34 -6 50 -18 34 -27 88 -50 117 -50 72 0
172 79 194 151 7 24 17 52 22 61 5 10 9 50 9 89 0 169 -77 285 -198 297 -40 3
-60 -1 -103 -23 -30 -14 -64 -36 -76 -47 -26 -25 -43 -16 -43 22 0 19 -7 33
-19 40 -25 13 -26 13 -41 -5z m329 -99 c54 -52 72 -216 33 -307 -50 -115 -143
-129 -244 -36 l-48 44 0 105 c0 102 16 168 40 168 5 0 29 14 52 30 37 26 50
30 91 27 35 -3 56 -11 76 -31z"/>
<path d="M6758 2339 c-24 -14 -23 -41 5 -97 13 -26 39 -90 57 -142 17 -52 38
-108 45 -125 7 -16 25 -64 40 -105 16 -41 32 -79 37 -84 12 -15 10 -41 -6 -73
-31 -62 -66 -142 -66 -152 0 -17 29 -27 66 -23 43 5 49 17 122 237 28 83 67
195 87 250 20 55 40 114 44 130 4 17 12 39 18 50 58 114 57 130 -7 130 l-45 0
-23 -70 c-13 -38 -37 -115 -53 -170 -50 -168 -52 -175 -65 -186 -17 -14 -54 6
-54 28 0 16 -31 126 -55 193 -7 19 -23 69 -36 110 -13 41 -28 80 -34 87 -15
17 -58 24 -77 12z"/>
<path d="M2967 2333 c-4 -3 -7 -136 -7 -294 l0 -287 38 2 c20 1 43 5 50 10 10
6 12 68 11 279 0 149 -3 277 -6 284 -5 13 -74 19 -86 6z"/>
</g>
</svg>
