<svg version="1.1" id="Layer_1" xmlns="http://www.w3.org/2000/svg" xmlns:xlink="http://www.w3.org/1999/xlink" x="0px" y="0px"
	 width="100%" viewBox="0 0 526 229" enable-background="new 0 0 526 229" xml:space="preserve">
<path fill="#000000" opacity="1.000000" stroke="none" 
	d="
M1.000001,83.000000 
	C1.000000,55.707390 1.000000,28.414776 1.000000,1.000000 
	C71.354179,1.000000 141.708435,1.000000 212.870819,1.239822 
	C212.779800,2.155267 211.942673,2.940653 210.971741,3.489215 
	C202.954773,8.018692 198.761353,18.030613 201.208878,27.399834 
	C203.105423,34.659920 212.129883,42.795204 221.069687,42.134254 
	C229.523102,41.509266 238.059036,42.008205 246.558624,41.991310 
	C247.886414,41.988670 249.370865,42.238094 250.516083,41.747791 
	C257.789429,38.633865 263.616486,33.748543 264.826721,25.625851 
	C266.108093,17.025602 263.958801,9.301084 255.886063,4.273517 
	C254.703247,3.536868 253.951294,2.108381 253.000000,1.000002 
	C257.689240,1.000000 262.378510,1.000000 267.533875,1.468657 
	C268.000000,15.194171 268.000000,28.451027 268.000000,41.615501 
	C271.365143,41.615501 274.079926,41.615501 277.147278,41.615501 
	C277.147278,30.639988 277.147278,20.046051 277.147278,9.024709 
	C285.124786,9.024709 292.758179,8.720027 300.348480,9.159513 
	C303.885040,9.364280 307.634003,10.579553 307.032196,15.780227 
	C306.498810,20.389856 303.551270,21.086796 299.718445,21.028355 
	C293.015045,20.926147 286.308929,20.999861 279.603973,20.999861 
	C286.543823,28.235970 293.763062,34.407951 301.017120,40.538685 
	C301.736694,41.146809 302.676941,41.927685 303.501404,41.912266 
	C314.742798,41.702049 327.763824,45.948338 333.112274,30.468277 
	C333.154602,30.345848 333.382355,30.287495 333.738922,30.064548 
	C334.477722,30.357792 335.804688,30.454657 336.163971,31.094709 
	C339.180969,36.469425 344.252960,34.866131 348.802490,34.986290 
	C351.630920,35.060993 354.480530,34.817631 357.285339,35.085884 
	C358.550171,35.206856 360.119110,35.920498 360.882690,36.890564 
	C365.409943,42.641918 366.178223,42.975159 374.551361,41.302307 
	C369.080688,32.733620 363.562225,24.298098 358.271698,15.721980 
	C355.318848,10.935315 352.744751,5.915017 350.000000,1.000003 
	C360.354218,1.000000 370.708466,1.000000 381.870789,1.239638 
	C381.780640,2.154346 380.952850,2.961734 379.973083,3.483808 
	C371.210297,8.153090 367.696686,18.722605 369.304810,25.500008 
	C371.412811,34.384216 380.219666,42.816219 389.772095,42.084831 
	C395.731964,41.628506 401.814453,41.474903 407.733856,42.143059 
	C414.048950,42.855881 416.719299,39.517597 419.151764,34.228176 
	C417.122223,34.139240 415.533936,34.013927 413.945312,34.009483 
	C406.285339,33.988049 398.622528,34.126808 390.966034,33.961464 
	C383.864227,33.808102 378.350189,28.682014 378.015045,22.289145 
	C377.704498,16.365768 382.155304,10.855495 388.683197,10.062488 
	C394.882202,9.309435 401.171112,9.173812 407.426361,9.038469 
	C414.967194,8.875313 415.588074,8.531664 418.000000,1.000000 
	C418.750000,1.000000 419.500000,1.000000 420.625000,1.468657 
	C421.000214,13.437092 421.077423,24.937660 420.959106,36.436218 
	C420.917389,40.490593 422.605133,42.107121 426.621490,42.040924 
	C434.952423,41.903618 443.296295,41.761543 451.617279,42.080349 
	C457.569946,42.308407 463.028198,42.252708 465.834534,35.737988 
	C465.986023,35.386299 466.620819,35.242813 467.319092,34.833191 
	C472.671265,40.809475 479.419617,42.838299 487.315125,42.074108 
	C491.608154,41.658588 496.025452,41.580009 500.295776,42.098415 
	C506.705688,42.876556 510.767151,40.799023 512.271912,33.999760 
	C503.413879,33.999760 494.618927,34.160992 485.833099,33.947525 
	C479.094971,33.783813 475.348022,32.057987 473.411835,26.000000 
	C481.469879,26.000000 489.460754,26.000040 497.451660,25.999989 
	C505.886963,25.999933 506.576355,25.509346 509.710327,17.053394 
	C497.664215,17.053394 485.725189,17.053394 473.694702,17.053394 
	C475.051758,12.715726 476.820557,10.491604 480.596161,10.112268 
	C487.315216,9.437201 494.088928,9.193830 500.845947,9.038984 
	C508.307404,8.867996 508.892303,8.582417 512.000000,1.000000 
	C512.750000,1.000000 513.500000,1.000000 514.911072,1.331962 
	C515.067261,2.501291 514.098206,3.369373 514.151184,4.169833 
	C514.273560,6.020375 514.312012,8.579995 515.459106,9.475589 
	C516.799316,10.521955 519.564392,10.771154 521.171204,10.090737 
	C522.261780,9.628923 522.598633,7.006946 522.943665,5.285097 
	C523.219604,3.908260 522.999817,2.432082 523.000000,1.000000 
	C524.326904,1.000000 525.653748,1.000000 527.000000,1.000000 
	C527.000000,29.687559 527.000000,58.375122 526.637878,87.700310 
	C525.459167,86.429817 524.526367,84.562080 523.847046,82.606293 
	C521.442688,75.684448 516.567078,70.651024 510.418732,67.379448 
	C501.418182,62.590202 491.263885,61.856113 481.458191,63.309174 
	C474.024048,64.410797 466.365967,66.768013 459.854309,70.428558 
	C454.892059,73.218094 451.571991,78.928825 447.082825,83.817497 
	C447.082825,76.907021 447.082825,70.098419 447.082825,63.115887 
	C430.896973,62.471664 421.021332,71.404213 412.859497,83.367958 
	C412.506470,83.080406 412.153473,82.792854 411.800446,82.505295 
	C411.800446,77.110748 411.800446,71.716202 411.800446,66.309547 
	C404.313934,66.309547 397.398193,66.309547 390.396881,66.309547 
	C390.396881,104.309593 390.396881,141.998779 390.396881,179.676636 
	C397.714386,179.676636 404.630402,179.676636 412.000000,179.676636 
	C412.000000,171.901062 411.783966,164.432266 412.045959,156.980301 
	C412.557251,142.436920 412.638336,127.828110 414.187805,113.384804 
	C415.957306,96.890228 431.397369,85.687569 446.974213,88.664589 
	C446.675262,91.602631 446.373230,94.571136 446.047333,97.774330 
	C454.254333,97.774330 461.858948,97.774330 469.710327,97.774330 
	C469.828247,96.625366 469.856018,95.659813 470.034637,94.723007 
	C471.550507,86.772034 477.656586,81.280708 485.252777,81.002518 
	C495.487457,80.627708 502.119141,84.579895 503.547791,93.510445 
	C504.599701,100.085838 503.754211,106.964767 503.754211,114.000053 
	C500.059692,114.000053 496.897736,113.818436 493.762756,114.032341 
	C481.894745,114.842125 470.461975,117.053268 459.667328,122.609535 
	C441.045471,132.194641 438.658722,155.396957 447.897339,169.876923 
	C456.525696,183.400391 480.486145,185.437943 492.945068,177.519714 
	C496.665222,175.155380 499.974945,172.145233 503.775085,169.196320 
	C503.935638,172.788086 504.086914,176.171936 504.258026,180.000000 
	C512.081238,180.000000 519.540649,180.000000 527.000000,180.000000 
	C527.000000,196.646057 527.000000,213.292099 527.000000,230.000000 
	C425.979126,230.000000 324.958221,230.000000 223.468658,229.531342 
	C223.000000,208.779068 223.000000,188.495453 223.000000,168.038437 
	C227.697800,171.779007 231.446823,175.154449 235.575272,177.974396 
	C245.867615,185.004669 266.178833,182.634048 275.343750,174.300262 
	C287.446350,163.295227 291.713776,148.857590 292.707428,133.630051 
	C293.486328,121.693703 292.207977,109.525421 290.832153,97.576637 
	C289.705017,87.787621 285.454865,78.610069 278.176392,71.990097 
	C266.036316,60.948345 248.290298,59.461372 234.493927,69.127190 
	C230.586624,71.864677 227.276031,75.453911 222.897781,79.361099 
	C222.897781,74.512001 222.897781,70.359146 222.897781,65.901489 
	C215.209412,65.901489 208.296555,65.901489 201.000000,65.901489 
	C201.000000,120.481438 201.000000,175.240723 201.000000,230.000000 
	C134.424301,230.000000 67.848595,230.000000 1.000000,230.000000 
	C1.000000,189.979523 1.000000,149.958420 1.239985,109.164200 
	C1.948712,108.608215 2.417454,108.825356 2.990802,109.267624 
	C3.434974,109.342567 3.774540,109.192390 4.556318,109.026054 
	C6.827870,108.991096 8.663865,109.066948 10.485522,108.938881 
	C28.888765,107.645065 47.276657,106.063782 65.697403,105.120995 
	C73.421692,104.725670 81.211418,105.768372 88.976257,105.972588 
	C104.553719,106.382271 120.133980,106.845924 135.714264,106.892883 
	C140.571716,106.907516 145.460175,105.795303 150.271347,104.870651 
	C151.332458,104.666710 152.125870,103.069763 153.302338,101.975739 
	C153.374496,101.280350 153.186859,100.723488 152.567535,100.103020 
	C142.619659,100.689751 133.099060,101.917137 123.588425,101.844147 
	C111.736641,101.753174 99.893097,100.589806 87.897736,99.624893 
	C87.166847,99.295746 86.584213,99.231209 85.538055,99.102859 
	C57.683357,96.991005 30.337843,98.265274 2.719516,100.174103 
	C1.958725,100.454369 1.479362,100.727188 1.000000,101.000000 
	C1.000000,96.310745 1.000000,91.621490 1.468657,86.466118 
	C34.559265,85.601097 67.107605,86.242340 99.503189,90.874641 
	C111.547432,92.596863 123.769051,93.163254 135.929565,93.951447 
	C141.853882,94.335434 147.823654,94.017868 153.806015,94.017868 
	C153.911606,90.151779 152.577026,88.890076 149.364487,88.947685 
	C141.375046,89.090965 133.294159,89.701637 125.405441,88.785698 
	C106.512642,86.592094 87.762238,83.131218 68.854790,81.116219 
	C50.336693,79.142723 31.695015,78.330772 13.108521,76.995895 
	C8.544175,76.668083 4.118769,76.507263 2.701632,82.357567 
	C2.621196,82.689629 1.589151,82.791176 1.000001,83.000000 
M43.312561,66.006172 
	C50.966499,67.013397 58.687572,67.665222 66.261513,69.095924 
	C87.181175,73.047600 108.004303,77.515198 128.941284,81.367477 
	C136.055786,82.676506 143.396057,82.758598 151.739731,83.499611 
	C141.820007,62.408268 124.582993,53.232426 105.318970,46.764175 
	C114.118706,28.934757 144.500046,27.949785 155.924850,44.826782 
	C163.210587,55.589462 165.940140,67.764313 167.146698,80.560555 
	C169.008759,100.309021 168.745895,119.838844 161.861145,138.657852 
	C158.350540,148.253876 152.584366,156.239243 142.269684,160.091080 
	C130.040924,164.657669 112.263512,161.384201 104.465515,147.230957 
	C117.931862,142.289642 131.380600,137.309647 141.419876,125.863991 
	C122.940292,127.965996 105.181961,129.790619 87.479820,132.054550 
	C69.806816,134.314743 52.190083,137.014923 34.548683,139.522217 
	C34.586967,140.148315 34.625252,140.774414 34.663536,141.400513 
	C46.493809,146.958252 59.008698,149.814407 72.109016,149.907333 
	C75.348732,149.930313 76.929085,150.877014 78.491440,153.788269 
	C85.064613,166.036575 94.931740,174.675095 108.286591,178.939240 
	C121.155609,183.048248 134.341568,183.060852 147.448502,180.649338 
	C156.947983,178.901566 165.496262,174.700119 172.592682,167.908401 
	C188.369995,152.808502 193.537247,133.239563 194.800400,112.520317 
	C195.554688,100.147545 194.661346,87.635017 193.912888,75.221230 
	C193.194717,63.309681 190.009079,51.890625 184.078217,41.467422 
	C173.866562,23.520941 159.120865,13.034844 137.610458,13.960730 
	C131.622940,14.218454 125.612007,13.888461 119.617538,14.046000 
	C116.516045,14.127511 113.316757,14.284282 110.351471,15.098428 
	C97.104111,18.735611 86.806671,26.429018 79.930923,38.397781 
	C77.676125,42.322746 74.647530,44.087723 70.095268,44.035690 
	C55.264168,43.866192 41.566750,48.255314 28.652481,55.186611 
	C24.798487,57.255104 21.380220,60.135433 17.762316,62.643806 
	C17.975466,63.008671 18.188616,63.373535 18.401766,63.738403 
	C26.400679,64.492722 34.399590,65.247040 43.312561,66.006172 
M337.998383,156.501450 
	C324.927155,145.920532 321.384460,131.254105 320.381714,115.000053 
	C322.211853,115.000053 324.014252,115.000061 325.816620,115.000053 
	C343.799011,114.999977 361.784760,114.808510 379.761749,115.119583 
	C384.973602,115.209763 386.732391,113.486488 386.020355,108.551781 
	C385.574677,105.463081 385.417236,102.333092 384.982239,99.242493 
	C383.293274,87.242393 378.816193,76.756927 368.346161,69.731628 
	C358.204712,62.926788 347.110962,62.044899 335.267090,63.871273 
	C318.341309,66.481285 307.135345,75.555389 301.714722,91.688507 
	C296.028290,108.612923 296.638458,125.725502 300.907867,142.816193 
	C305.878754,162.714981 317.969879,175.946304 338.217773,180.512146 
	C352.271729,183.681305 366.420563,182.342239 380.338593,178.897919 
	C381.345154,178.648819 382.790009,177.336975 382.827240,176.467651 
	C383.057648,171.092194 382.943054,165.701950 382.943054,160.327576 
	C378.036072,161.568710 373.841522,163.155655 369.526459,163.618027 
	C358.548950,164.794296 347.717072,164.544052 337.998383,156.501450 
M116.353653,120.999947 
	C125.667488,119.941093 134.988907,118.943550 144.291351,117.792641 
	C147.915161,117.344299 150.426834,115.520950 150.698776,111.186371 
	C145.292404,112.157356 140.208878,113.492294 135.050980,113.910835 
	C123.522232,114.846359 111.954315,115.909836 100.406136,115.868462 
	C76.205269,115.781746 52.116230,117.014435 28.113474,120.020218 
	C22.195423,120.761314 16.302628,121.704079 9.626423,122.665237 
	C13.427988,127.075272 16.009413,131.009186 22.003386,129.970840 
	C34.604362,127.787994 47.211285,125.310211 59.924774,124.184326 
	C78.361069,122.551628 96.893822,122.008080 116.353653,120.999947 
z"/>
<path fill="#0065AE" opacity="1.000000" stroke="none" 
	d="
M527.000000,179.531342 
	C519.540649,180.000000 512.081238,180.000000 504.258026,180.000000 
	C504.086914,176.171936 503.935638,172.788086 503.775085,169.196320 
	C499.974945,172.145233 496.665222,175.155380 492.945068,177.519714 
	C480.486145,185.437943 456.525696,183.400391 447.897339,169.876923 
	C438.658722,155.396957 441.045471,132.194641 459.667328,122.609535 
	C470.461975,117.053268 481.894745,114.842125 493.762756,114.032341 
	C496.897736,113.818436 500.059692,114.000053 503.754211,114.000053 
	C503.754211,106.964767 504.599701,100.085838 503.547791,93.510445 
	C502.119141,84.579895 495.487457,80.627708 485.252777,81.002518 
	C477.656586,81.280708 471.550507,86.772034 470.034637,94.723007 
	C469.856018,95.659813 469.828247,96.625366 469.710327,97.774330 
	C461.858948,97.774330 454.254333,97.774330 446.047333,97.774330 
	C446.373230,94.571136 446.675262,91.602631 446.974213,88.664589 
	C431.397369,85.687569 415.957306,96.890228 414.187805,113.384804 
	C412.638336,127.828110 412.557251,142.436920 412.045959,156.980301 
	C411.783966,164.432266 412.000000,171.901062 412.000000,179.676636 
	C404.630402,179.676636 397.714386,179.676636 390.396881,179.676636 
	C390.396881,141.998779 390.396881,104.309593 390.396881,66.309547 
	C397.398193,66.309547 404.313934,66.309547 411.800446,66.309547 
	C411.800446,71.716202 411.800446,77.110748 411.800446,82.505295 
	C412.153473,82.792854 412.506470,83.080406 412.859497,83.367958 
	C421.021332,71.404213 430.896973,62.471664 447.082825,63.115887 
	C447.082825,70.098419 447.082825,76.907021 447.082825,83.817497 
	C451.571991,78.928825 454.892059,73.218094 459.854309,70.428558 
	C466.365967,66.768013 474.024048,64.410797 481.458191,63.309174 
	C491.263885,61.856113 501.418182,62.590202 510.418732,67.379448 
	C516.567078,70.651024 521.442688,75.684448 523.847046,82.606293 
	C524.526367,84.562080 525.459167,86.429817 526.637878,88.168968 
	C527.000000,118.354225 527.000000,148.708450 527.000000,179.531342 
M469.019806,157.064194 
	C472.703522,163.825516 476.830963,165.188828 484.184967,163.469086 
	C496.158722,160.669022 506.487946,142.662659 503.371948,129.094254 
	C494.816803,128.780060 486.538177,130.273697 478.755707,134.095764 
	C469.666809,138.559433 466.239441,146.364365 469.019806,157.064194 
z"/>
<path fill="#0065AE" opacity="1.000000" stroke="none" 
	d="
M201.468567,230.000000 
	C201.000000,175.240723 201.000000,120.481438 201.000000,65.901489 
	C208.296555,65.901489 215.209412,65.901489 222.897781,65.901489 
	C222.897781,70.359146 222.897781,74.512001 222.897781,79.361099 
	C227.276031,75.453911 230.586624,71.864677 234.493927,69.127190 
	C248.290298,59.461372 266.036316,60.948345 278.176392,71.990097 
	C285.454865,78.610069 289.705017,87.787621 290.832153,97.576637 
	C292.207977,109.525421 293.486328,121.693703 292.707428,133.630051 
	C291.713776,148.857590 287.446350,163.295227 275.343750,174.300262 
	C266.178833,182.634048 245.867615,185.004669 235.575272,177.974396 
	C231.446823,175.154449 227.697800,171.779007 223.000000,168.038437 
	C223.000000,188.495453 223.000000,208.779068 223.000000,229.531342 
	C215.979050,230.000000 208.958099,230.000000 201.468567,230.000000 
M223.000259,119.694244 
	C222.637222,130.332153 224.070389,140.706680 228.056213,150.601669 
	C231.114288,158.193466 237.956253,164.756989 247.741898,164.095398 
	C255.881622,163.545059 260.846710,159.537338 264.329590,150.412277 
	C268.646851,139.101166 268.488922,127.355011 267.817932,115.697594 
	C267.370911,107.931290 265.795807,100.086647 263.602356,92.606438 
	C261.607788,85.804527 255.990768,82.004776 248.933365,81.066574 
	C241.722748,80.108002 236.142654,83.117645 232.000519,88.990234 
	C225.703842,97.917534 224.472137,108.369301 223.000259,119.694244 
z"/>
<path fill="#FF0000" opacity="1.000000" stroke="none" 
	d="
M349.545898,1.000003 
	C352.744751,5.915017 355.318848,10.935315 358.271698,15.721980 
	C363.562225,24.298098 369.080688,32.733620 374.551361,41.302307 
	C366.178223,42.975159 365.409943,42.641918 360.882690,36.890564 
	C360.119110,35.920498 358.550171,35.206856 357.285339,35.085884 
	C354.480530,34.817631 351.630920,35.060993 348.802490,34.986290 
	C344.252960,34.866131 339.180969,36.469425 336.163971,31.094709 
	C335.804688,30.454657 334.477722,30.357792 333.738922,30.064548 
	C333.382355,30.287495 333.154602,30.345848 333.112274,30.468277 
	C327.763824,45.948338 314.742798,41.702049 303.501404,41.912266 
	C302.676941,41.927685 301.736694,41.146809 301.017120,40.538685 
	C293.763062,34.407951 286.543823,28.235970 279.603973,20.999861 
	C286.308929,20.999861 293.015045,20.926147 299.718445,21.028355 
	C303.551270,21.086796 306.498810,20.389856 307.032196,15.780227 
	C307.634003,10.579553 303.885040,9.364280 300.348480,9.159513 
	C292.758179,8.720027 285.124786,9.024709 277.147278,9.024709 
	C277.147278,20.046051 277.147278,30.639988 277.147278,41.615501 
	C274.079926,41.615501 271.365143,41.615501 268.000000,41.615501 
	C268.000000,28.451027 268.000000,15.194171 268.000000,1.468657 
	C281.354218,1.000000 294.708466,1.000000 308.188843,1.227969 
	C308.847626,2.088564 309.284760,2.847171 309.927551,3.334420 
	C316.698151,8.466662 318.166382,15.434410 314.079193,22.746611 
	C311.328552,27.667578 306.680939,29.036283 300.223633,29.274166 
	C305.887085,33.869789 310.497223,37.610691 315.215759,41.439552 
	C320.756989,32.855564 325.993256,24.989069 330.962921,16.957600 
	C334.177063,11.763255 337.001129,6.327549 340.000000,1.000000 
	C343.030609,1.000000 346.061188,1.000000 349.545898,1.000003 
M338.267487,26.999432 
	C343.622986,26.999432 348.978485,26.999432 354.918976,26.999432 
	C351.302002,21.477383 348.169800,16.695477 344.820587,11.582217 
	C341.784943,16.433943 339.009735,20.806326 336.363190,25.255232 
	C336.203461,25.523756 337.068390,26.401838 338.267487,26.999432 
z"/>
<path fill="#FF0000" opacity="1.000000" stroke="none" 
	d="
M511.531342,1.000000 
	C508.892303,8.582417 508.307404,8.867996 500.845947,9.038984 
	C494.088928,9.193830 487.315216,9.437201 480.596161,10.112268 
	C476.820557,10.491604 475.051758,12.715726 473.694702,17.053394 
	C485.725189,17.053394 497.664215,17.053394 509.710327,17.053394 
	C506.576355,25.509346 505.886963,25.999933 497.451660,25.999989 
	C489.460754,26.000040 481.469879,26.000000 473.411835,26.000000 
	C475.348022,32.057987 479.094971,33.783813 485.833099,33.947525 
	C494.618927,34.160992 503.413879,33.999760 512.271912,33.999760 
	C510.767151,40.799023 506.705688,42.876556 500.295776,42.098415 
	C496.025452,41.580009 491.608154,41.658588 487.315125,42.074108 
	C479.419617,42.838299 472.671265,40.809475 467.319092,34.833191 
	C466.620819,35.242813 465.986023,35.386299 465.834534,35.737988 
	C463.028198,42.252708 457.569946,42.308407 451.617279,42.080349 
	C443.296295,41.761543 434.952423,41.903618 426.621490,42.040924 
	C422.605133,42.107121 420.917389,40.490593 420.959106,36.436218 
	C421.077423,24.937660 421.000214,13.437092 421.000000,1.468657 
	C423.700012,1.000000 426.400024,1.000000 429.550018,1.468657 
	C430.000000,12.510433 430.000000,23.083551 430.000000,33.801300 
	C442.490173,33.801300 454.359650,33.801300 466.333740,33.801300 
	C460.132019,22.076967 461.906830,11.006984 473.688446,3.069822 
	C474.308868,2.651867 474.571045,1.702161 475.000000,1.000000 
	C487.020905,1.000000 499.041779,1.000000 511.531342,1.000000 
z"/>
<path fill="#FF0000" opacity="1.000000" stroke="none" 
	d="
M252.531342,1.000002 
	C253.951294,2.108381 254.703247,3.536868 255.886063,4.273517 
	C263.958801,9.301084 266.108093,17.025602 264.826721,25.625851 
	C263.616486,33.748543 257.789429,38.633865 250.516083,41.747791 
	C249.370865,42.238094 247.886414,41.988670 246.558624,41.991310 
	C238.059036,42.008205 229.523102,41.509266 221.069687,42.134254 
	C212.129883,42.795204 203.105423,34.659920 201.208878,27.399834 
	C198.761353,18.030613 202.954773,8.018692 210.971741,3.489215 
	C211.942673,2.940653 212.779800,2.155267 213.339478,1.239822 
	C226.020889,1.000000 239.041794,1.000000 252.531342,1.000002 
M217.079819,10.045759 
	C210.562210,14.445215 208.439407,19.115055 210.147110,25.296673 
	C211.319443,29.540367 216.108154,33.748928 220.904007,33.913437 
	C228.890991,34.187416 236.899796,34.175262 244.888351,33.927296 
	C250.004822,33.768478 255.837250,28.084913 255.993469,23.735664 
	C256.274902,15.899708 253.311432,10.742808 246.407150,10.176594 
	C236.967041,9.402417 227.414566,9.998509 217.079819,10.045759 
z"/>
<path fill="#000000" opacity="1.000000" stroke="none" 
	d="
M474.531342,1.000000 
	C474.571045,1.702161 474.308868,2.651867 473.688446,3.069822 
	C461.906830,11.006984 460.132019,22.076967 466.333740,33.801300 
	C454.359650,33.801300 442.490173,33.801300 430.000000,33.801300 
	C430.000000,23.083551 430.000000,12.510433 430.000000,1.468657 
	C444.687561,1.000000 459.375122,1.000000 474.531342,1.000000 
z"/>
<path fill="#0065AE" opacity="1.000000" stroke="none" 
	d="
M88.045990,99.889511 
	C99.893097,100.589806 111.736641,101.753174 123.588425,101.844147 
	C133.099060,101.917137 142.619659,100.689751 152.571793,100.427658 
	C153.019348,101.248688 153.030945,101.681480 153.042542,102.114273 
	C152.125870,103.069763 151.332458,104.666710 150.271347,104.870651 
	C145.460175,105.795303 140.571716,106.907516 135.714264,106.892883 
	C120.133980,106.845924 104.553719,106.382271 88.976257,105.972588 
	C81.211418,105.768372 73.421692,104.725670 65.697403,105.120995 
	C47.276657,106.063782 28.888765,107.645065 10.485522,108.938881 
	C8.663865,109.066948 6.827870,108.991096 4.249289,109.021896 
	C3.295430,109.036758 3.090813,109.039627 2.886196,109.042496 
	C2.417454,108.825356 1.948712,108.608215 1.239985,108.695541 
	C1.000000,108.250000 1.000000,107.500000 1.300489,106.192673 
	C2.067633,103.812454 2.534289,101.989555 3.000945,100.166656 
	C30.337843,98.265274 57.683357,96.991005 85.635399,99.306267 
	C86.812851,99.678818 87.429420,99.784164 88.045990,99.889511 
z"/>
<path fill="#0065AE" opacity="1.000000" stroke="none" 
	d="
M1.000001,83.375000 
	C1.589151,82.791176 2.621196,82.689629 2.701632,82.357567 
	C4.118769,76.507263 8.544175,76.668083 13.108521,76.995895 
	C31.695015,78.330772 50.336693,79.142723 68.854790,81.116219 
	C87.762238,83.131218 106.512642,86.592094 125.405441,88.785698 
	C133.294159,89.701637 141.375046,89.090965 149.364487,88.947685 
	C152.577026,88.890076 153.911606,90.151779 153.806015,94.017868 
	C147.823654,94.017868 141.853882,94.335434 135.929565,93.951447 
	C123.769051,93.163254 111.547432,92.596863 99.503189,90.874641 
	C67.107605,86.242340 34.559265,85.601097 1.468657,86.000000 
	C1.000000,85.250000 1.000000,84.500000 1.000001,83.375000 
z"/>
<path fill="#FF0000" opacity="1.000000" stroke="none" 
	d="
M417.531342,1.000000 
	C415.588074,8.531664 414.967194,8.875313 407.426361,9.038469 
	C401.171112,9.173812 394.882202,9.309435 388.683197,10.062488 
	C382.155304,10.855495 377.704498,16.365768 378.015045,22.289145 
	C378.350189,28.682014 383.864227,33.808102 390.966034,33.961464 
	C398.622528,34.126808 406.285339,33.988049 413.945312,34.009483 
	C415.533936,34.013927 417.122223,34.139240 419.151764,34.228176 
	C416.719299,39.517597 414.048950,42.855881 407.733856,42.143059 
	C401.814453,41.474903 395.731964,41.628506 389.772095,42.084831 
	C380.219666,42.816219 371.412811,34.384216 369.304810,25.500008 
	C367.696686,18.722605 371.210297,8.153090 379.973083,3.483808 
	C380.952850,2.961734 381.780640,2.154346 382.339447,1.239638 
	C393.687561,1.000000 405.375122,1.000000 417.531342,1.000000 
z"/>
<path fill="#000000" opacity="1.000000" stroke="none" 
	d="
M339.531342,1.000000 
	C337.001129,6.327549 334.177063,11.763255 330.962921,16.957600 
	C325.993256,24.989069 320.756989,32.855564 315.215759,41.439552 
	C310.497223,37.610691 305.887085,33.869789 300.223633,29.274166 
	C306.680939,29.036283 311.328552,27.667578 314.079193,22.746611 
	C318.166382,15.434410 316.698151,8.466662 309.927551,3.334420 
	C309.284760,2.847171 308.847626,2.088564 308.657532,1.227969 
	C319.020905,1.000000 329.041779,1.000000 339.531342,1.000000 
z"/>
<path fill="#FF0000" opacity="1.000000" stroke="none" 
	d="
M522.555847,1.000000 
	C522.999817,2.432082 523.219604,3.908260 522.943665,5.285097 
	C522.598633,7.006946 522.261780,9.628923 521.171204,10.090737 
	C519.564392,10.771154 516.799316,10.521955 515.459106,9.475589 
	C514.312012,8.579995 514.273560,6.020375 514.151184,4.169833 
	C514.098206,3.369373 515.067261,2.501291 515.286072,1.331962 
	C517.370544,1.000000 519.741150,1.000000 522.555847,1.000000 
z"/>
<path fill="#0065AE" opacity="1.000000" stroke="none" 
	d="
M2.719516,100.174103 
	C2.534289,101.989555 2.067633,103.812454 1.300489,105.817673 
	C1.000000,104.611107 1.000000,103.222221 1.000000,101.416664 
	C1.479362,100.727188 1.958725,100.454369 2.719516,100.174103 
z"/>
<path fill="#0065AE" opacity="1.000000" stroke="none" 
	d="
M42.855530,66.003769 
	C34.399590,65.247040 26.400679,64.492722 18.401766,63.738403 
	C18.188616,63.373535 17.975466,63.008671 17.762316,62.643806 
	C21.380220,60.135433 24.798487,57.255104 28.652481,55.186611 
	C41.566750,48.255314 55.264168,43.866192 70.095268,44.035690 
	C74.647530,44.087723 77.676125,42.322746 79.930923,38.397781 
	C86.806671,26.429018 97.104111,18.735611 110.351471,15.098428 
	C113.316757,14.284282 116.516045,14.127511 119.617538,14.046000 
	C125.612007,13.888461 131.622940,14.218454 137.610458,13.960730 
	C159.120865,13.034844 173.866562,23.520941 184.078217,41.467422 
	C190.009079,51.890625 193.194717,63.309681 193.912888,75.221230 
	C194.661346,87.635017 195.554688,100.147545 194.800400,112.520317 
	C193.537247,133.239563 188.369995,152.808502 172.592682,167.908401 
	C165.496262,174.700119 156.947983,178.901566 147.448502,180.649338 
	C134.341568,183.060852 121.155609,183.048248 108.286591,178.939240 
	C94.931740,174.675095 85.064613,166.036575 78.491440,153.788269 
	C76.929085,150.877014 75.348732,149.930313 72.109016,149.907333 
	C59.008698,149.814407 46.493809,146.958252 34.663536,141.400513 
	C34.625252,140.774414 34.586967,140.148315 34.548683,139.522217 
	C52.190083,137.014923 69.806816,134.314743 87.479820,132.054550 
	C105.181961,129.790619 122.940292,127.965996 141.419876,125.863991 
	C131.380600,137.309647 117.931862,142.289642 104.465515,147.230957 
	C112.263512,161.384201 130.040924,164.657669 142.269684,160.091080 
	C152.584366,156.239243 158.350540,148.253876 161.861145,138.657852 
	C168.745895,119.838844 169.008759,100.309021 167.146698,80.560555 
	C165.940140,67.764313 163.210587,55.589462 155.924850,44.826782 
	C144.500046,27.949785 114.118706,28.934757 105.318970,46.764175 
	C124.582993,53.232426 141.820007,62.408268 151.739731,83.499611 
	C143.396057,82.758598 136.055786,82.676506 128.941284,81.367477 
	C108.004303,77.515198 87.181175,73.047600 66.261513,69.095924 
	C58.687572,67.665222 50.966499,67.013397 42.855530,66.003769 
z"/>
<path fill="#0065AE" opacity="1.000000" stroke="none" 
	d="
M338.260315,156.759552 
	C347.717072,164.544052 358.548950,164.794296 369.526459,163.618027 
	C373.841522,163.155655 378.036072,161.568710 382.943054,160.327576 
	C382.943054,165.701950 383.057648,171.092194 382.827240,176.467651 
	C382.790009,177.336975 381.345154,178.648819 380.338593,178.897919 
	C366.420563,182.342239 352.271729,183.681305 338.217773,180.512146 
	C317.969879,175.946304 305.878754,162.714981 300.907867,142.816193 
	C296.638458,125.725502 296.028290,108.612923 301.714722,91.688507 
	C307.135345,75.555389 318.341309,66.481285 335.267090,63.871273 
	C347.110962,62.044899 358.204712,62.926788 368.346161,69.731628 
	C378.816193,76.756927 383.293274,87.242393 384.982239,99.242493 
	C385.417236,102.333092 385.574677,105.463081 386.020355,108.551781 
	C386.732391,113.486488 384.973602,115.209763 379.761749,115.119583 
	C361.784760,114.808510 343.799011,114.999977 325.816620,115.000053 
	C324.014252,115.000061 322.211853,115.000053 320.381714,115.000053 
	C321.384460,131.254105 324.927155,145.920532 338.260315,156.759552 
M342.499146,100.000000 
	C349.302155,99.240883 356.476410,101.710014 363.038269,98.324112 
	C359.921021,83.182693 351.386993,80.407379 340.275085,81.107025 
	C329.627655,81.777420 322.093781,90.239204 321.571136,100.000000 
	C328.222778,100.000000 334.861237,100.000000 342.499146,100.000000 
z"/>
<path fill="#0065AE" opacity="1.000000" stroke="none" 
	d="
M115.869537,120.999969 
	C96.893822,122.008080 78.361069,122.551628 59.924774,124.184326 
	C47.211285,125.310211 34.604362,127.787994 22.003386,129.970840 
	C16.009413,131.009186 13.427988,127.075272 9.626423,122.665237 
	C16.302628,121.704079 22.195423,120.761314 28.113474,120.020218 
	C52.116230,117.014435 76.205269,115.781746 100.406136,115.868462 
	C111.954315,115.909836 123.522232,114.846359 135.050980,113.910835 
	C140.208878,113.492294 145.292404,112.157356 150.698776,111.186371 
	C150.426834,115.520950 147.915161,117.344299 144.291351,117.792641 
	C134.988907,118.943550 125.667488,119.941093 115.869537,120.999969 
z"/>
<path fill="#0065AE" opacity="1.000000" stroke="none" 
	d="
M87.897736,99.624901 
	C87.429420,99.784164 86.812851,99.678818 86.098938,99.370071 
	C86.584213,99.231209 87.166847,99.295746 87.897736,99.624901 
z"/>
<path fill="#0065AE" opacity="1.000000" stroke="none" 
	d="
M153.302338,101.975739 
	C153.030945,101.681480 153.019348,101.248688 153.003494,100.491257 
	C153.186859,100.723488 153.374496,101.280350 153.302338,101.975739 
z"/>
<path fill="#0065AE" opacity="1.000000" stroke="none" 
	d="
M2.990802,109.267624 
	C3.090813,109.039627 3.295430,109.036758 3.807077,109.038055 
	C3.774540,109.192390 3.434974,109.342567 2.990802,109.267624 
z"/>
<path fill="#000000" opacity="1.000000" stroke="none" 
	d="
M468.884155,156.679474 
	C466.239441,146.364365 469.666809,138.559433 478.755707,134.095764 
	C486.538177,130.273697 494.816803,128.780060 503.371948,129.094254 
	C506.487946,142.662659 496.158722,160.669022 484.184967,163.469086 
	C476.830963,165.188828 472.703522,163.825516 468.884155,156.679474 
z"/>
<path fill="#000000" opacity="1.000000" stroke="none" 
	d="
M223.000732,119.223099 
	C224.472137,108.369301 225.703842,97.917534 232.000519,88.990234 
	C236.142654,83.117645 241.722748,80.108002 248.933365,81.066574 
	C255.990768,82.004776 261.607788,85.804527 263.602356,92.606438 
	C265.795807,100.086647 267.370911,107.931290 267.817932,115.697594 
	C268.488922,127.355011 268.646851,139.101166 264.329590,150.412277 
	C260.846710,159.537338 255.881622,163.545059 247.741898,164.095398 
	C237.956253,164.756989 231.114288,158.193466 228.056213,150.601669 
	C224.070389,140.706680 222.637222,130.332153 223.000732,119.223099 
z"/>
<path fill="#000000" opacity="1.000000" stroke="none" 
	d="
M337.862000,26.997860 
	C337.068390,26.401838 336.203461,25.523756 336.363190,25.255232 
	C339.009735,20.806326 341.784943,16.433943 344.820587,11.582217 
	C348.169800,16.695477 351.302002,21.477383 354.918976,26.999432 
	C348.978485,26.999432 343.622986,26.999432 337.862000,26.997860 
z"/>
<path fill="#000000" opacity="1.000000" stroke="none" 
	d="
M217.495026,10.026497 
	C227.414566,9.998509 236.967041,9.402417 246.407150,10.176594 
	C253.311432,10.742808 256.274902,15.899708 255.993469,23.735664 
	C255.837250,28.084913 250.004822,33.768478 244.888351,33.927296 
	C236.899796,34.175262 228.890991,34.187416 220.904007,33.913437 
	C216.108154,33.748928 211.319443,29.540367 210.147110,25.296673 
	C208.439407,19.115055 210.562210,14.445215 217.495026,10.026497 
z"/>
<path fill="#000000" opacity="1.000000" stroke="none" 
	d="
M341.999420,100.000000 
	C334.861237,100.000000 328.222778,100.000000 321.571136,100.000000 
	C322.093781,90.239204 329.627655,81.777420 340.275085,81.107025 
	C351.386993,80.407379 359.921021,83.182693 363.038269,98.324112 
	C356.476410,101.710014 349.302155,99.240883 341.999420,100.000000 
z"/>
</svg>