<svg version="1.1" id="Layer_1" xmlns="http://www.w3.org/2000/svg" xmlns:xlink="http://www.w3.org/1999/xlink" x="0px" y="0px"
	 width="100%" viewBox="0 0 3840 2160" enable-background="new 0 0 3840 2160" xml:space="preserve">
<path fill="#47704C" opacity="1.000000" stroke="none" 
	d="
M3614.000000,2162.000000 
	C2409.333496,2162.000000 1205.667114,2162.000000 2.000484,2162.000000 
	C2.000323,1442.000366 2.000323,722.000671 2.000162,2.000774 
	C1281.999390,2.000516 2561.998779,2.000516 3841.998535,2.000258 
	C3841.999023,721.999268 3841.999023,1441.998535 3841.999512,2161.999023 
	C3766.333252,2162.000000 3690.666748,2162.000000 3614.000000,2162.000000 
M837.651550,1002.494873 
	C837.277161,1002.293335 836.902771,1002.091736 836.426453,1000.050110 
	C836.316406,994.388550 836.424988,988.712158 836.040527,983.069275 
	C835.569031,976.149841 833.822937,974.564148 826.761047,974.015808 
	C823.778259,973.784302 820.768311,973.868652 817.770752,973.867126 
	C797.116455,973.856506 776.462158,973.852417 755.807861,973.863220 
	C736.270630,973.873413 736.244507,973.882507 736.243164,992.956604 
	C736.234619,1110.885864 736.238220,1228.815186 736.242126,1346.744507 
	C736.242249,1349.742432 736.167419,1352.747803 736.343506,1355.736938 
	C736.829773,1363.992310 738.436768,1366.028076 746.449036,1366.087036 
	C774.097046,1366.290283 801.748352,1366.288574 829.396423,1366.095581 
	C837.509888,1366.038940 839.155334,1364.042969 839.647522,1355.891235 
	C839.848083,1352.570557 839.757263,1349.230835 839.757812,1345.899780 
	C839.763733,1306.589966 839.758484,1267.280273 839.763123,1227.970459 
	C839.767090,1194.323975 839.835938,1160.677368 839.743225,1127.031128 
	C839.724182,1120.105957 840.991821,1113.951904 846.048218,1108.742065 
	C876.078125,1077.800415 911.412659,1062.641479 955.015930,1071.681763 
	C957.293640,1072.153931 959.600342,1072.486206 961.892700,1072.888550 
	C971.338867,1074.546753 974.061279,1072.563721 974.126770,1062.744263 
	C974.302185,1036.428101 974.289001,1010.109375 974.117920,983.793091 
	C974.059814,974.858521 973.000488,973.953735 964.169128,971.680054 
	C928.548523,962.509460 895.613892,970.771545 864.147827,987.496826 
	C855.383057,992.155640 847.196960,997.903198 837.651550,1002.494873 
M2261.138428,1264.539429 
	C2260.197021,1265.149658 2259.255615,1265.760010 2257.471191,1266.351074 
	C2256.328613,1267.397461 2255.186035,1268.443848 2252.931152,1270.353516 
	C2246.804932,1273.703979 2240.928711,1277.660889 2234.511963,1280.305664 
	C2195.071533,1296.560913 2157.834229,1294.188110 2123.591797,1264.921509 
	C2122.296875,1258.332153 2118.017334,1255.053589 2110.648193,1253.238037 
	C2100.542969,1241.774170 2093.919434,1228.462769 2089.965332,1213.794678 
	C2085.560303,1197.454712 2086.519775,1196.259766 2103.583984,1196.256836 
	C2180.198730,1196.243652 2256.813477,1196.259155 2333.428223,1196.239990 
	C2351.032959,1196.235474 2353.000732,1194.748413 2353.473389,1177.124878 
	C2353.775635,1165.859863 2352.974609,1154.518799 2351.975830,1143.273438 
	C2347.902832,1097.407959 2331.335205,1056.455078 2300.482178,1022.273193 
	C2257.889160,975.084351 2203.855957,957.494751 2141.620361,966.940247 
	C2092.373535,974.414490 2053.727051,1000.489258 2026.023926,1041.603149 
	C2003.687256,1074.752808 1990.767212,1111.494751 1989.882446,1151.954590 
	C1989.174805,1184.325195 1990.098022,1216.213623 2001.564453,1247.359985 
	C2018.537109,1293.462646 2047.816772,1328.052612 2090.916504,1351.573853 
	C2130.798584,1373.339233 2173.988525,1376.189331 2217.184082,1370.911987 
	C2262.240234,1365.407715 2301.411621,1344.757935 2333.312500,1311.656372 
	C2340.964600,1303.716309 2340.960938,1303.335083 2333.593750,1292.938599 
	C2332.309570,1290.298462 2331.593018,1287.106323 2329.648926,1285.107910 
	C2317.223633,1272.332764 2304.585449,1259.761963 2291.874268,1247.269531 
	C2289.277344,1244.717285 2286.135986,1242.467407 2281.318848,1246.323242 
	C2277.733154,1249.607910 2274.147461,1252.892578 2269.170654,1256.476562 
	C2265.121826,1257.264526 2262.945557,1259.922119 2261.138428,1264.539429 
M639.817017,1257.203247 
	C637.096619,1247.733521 631.884338,1243.064697 622.787476,1243.626831 
	C615.876404,1249.338745 609.055298,1255.163696 602.037476,1260.741333 
	C580.114075,1278.165527 554.678894,1287.457275 527.104919,1287.222046 
	C491.509796,1286.918457 462.996185,1270.907715 443.030975,1241.057739 
	C435.579987,1229.917969 430.385742,1217.573608 427.921722,1204.295654 
	C426.369385,1195.930542 427.854797,1194.285278 436.503937,1193.863892 
	C440.161926,1193.685669 443.833923,1193.776611 447.499542,1193.776123 
	C523.147949,1193.765259 598.796387,1193.794800 674.444641,1193.718506 
	C687.871765,1193.704956 692.047913,1189.979370 692.014404,1176.574829 
	C691.977051,1161.626343 691.912231,1146.535522 689.948120,1131.760742 
	C683.839905,1085.812256 665.467712,1045.477783 631.838135,1012.921875 
	C589.456543,971.893433 538.155029,957.983032 480.990295,967.229797 
	C442.165222,973.510010 409.378235,992.575439 382.822693,1022.243469 
	C360.371643,1047.325806 344.989899,1075.979858 336.135773,1108.261719 
	C329.202332,1133.540894 328.066223,1159.257080 329.331909,1185.404785 
	C330.423096,1207.946289 334.524841,1229.515137 342.189697,1250.683960 
	C353.467468,1281.831055 371.606079,1308.452637 396.921295,1329.256348 
	C428.772919,1355.431152 465.548553,1370.728394 507.438080,1372.154175 
	C538.271057,1373.203491 568.526794,1371.560791 597.872498,1360.280151 
	C627.002380,1349.082520 652.600281,1332.995117 674.119812,1310.433350 
	C680.575500,1303.665039 680.585938,1302.386230 674.176392,1295.638794 
	C667.751221,1288.874756 661.010925,1282.407593 654.651855,1275.583740 
	C649.451782,1270.003540 644.609375,1264.090088 639.817017,1257.203247 
M3034.852539,965.179443 
	C3033.408447,965.202515 3031.964111,965.225647 3028.852295,965.295410 
	C3027.740479,965.280090 3026.628418,965.264709 3025.260010,965.212280 
	C3025.260010,965.212280 3024.486572,965.250122 3022.578125,965.433960 
	C3012.645508,966.256775 3002.605957,966.419373 2992.798096,968.010925 
	C2933.633789,977.611572 2886.493164,1007.468323 2851.700195,1055.699219 
	C2817.039795,1103.746216 2803.941895,1158.088501 2809.556641,1217.073608 
	C2814.430420,1268.275024 2833.184814,1313.619751 2866.098633,1353.073975 
	C2874.684082,1363.365479 2883.849609,1373.122681 2899.058105,1375.176392 
	C2899.532959,1375.444214 2900.011963,1375.704834 2902.012695,1375.809082 
	C2904.551025,1375.862793 2907.089355,1375.916504 2910.208740,1375.703857 
	C2910.589111,1375.525391 2910.968262,1375.343872 2913.003174,1374.744263 
	C2921.947021,1373.015869 2930.285645,1370.007812 2937.374268,1363.982666 
	C2980.793701,1327.077759 3054.534912,1324.079956 3098.963867,1351.218872 
	C3108.605957,1357.108398 3117.682617,1363.915527 3127.164795,1370.076660 
	C3137.623291,1376.872192 3148.841797,1378.070679 3160.571045,1373.731201 
	C3171.524414,1369.678711 3179.665771,1362.080200 3187.210938,1353.390747 
	C3233.583740,1299.986450 3254.102539,1238.134033 3245.953857,1167.858398 
	C3238.999023,1107.879639 3211.940918,1057.483032 3166.601807,1017.675598 
	C3129.364258,984.981628 3085.615479,967.116516 3034.852539,965.179443 
M3520.217285,1163.476196 
	C3521.829346,1159.673096 3523.441162,1155.869995 3525.053223,1152.067017 
	C3525.813477,1152.070312 3526.573975,1152.073608 3527.334229,1152.076904 
	C3529.104492,1155.448975 3531.255615,1158.678589 3532.578125,1162.218018 
	C3538.165527,1177.174438 3543.429443,1192.251465 3548.951904,1207.232544 
	C3562.644287,1244.377441 3576.389404,1281.502808 3590.164795,1318.616943 
	C3594.909668,1331.400269 3599.984619,1344.063599 3604.562256,1356.905151 
	C3607.091797,1364.000854 3611.789795,1366.415649 3619.052002,1366.304932 
	C3637.044678,1366.030396 3655.044922,1366.299683 3673.041260,1366.206299 
	C3684.876221,1366.145020 3685.640625,1365.659790 3689.884033,1354.640259 
	C3701.972900,1323.246948 3713.967041,1291.816895 3725.940186,1260.379028 
	C3750.834717,1195.013916 3775.701904,1129.638062 3800.559326,1064.258789 
	C3810.739258,1037.484619 3820.954590,1010.722961 3830.962402,983.884338 
	C3833.881592,976.056885 3832.615234,974.076721 3824.316650,974.014771 
	C3796.322998,973.805786 3768.326660,974.017822 3740.332520,973.857788 
	C3734.025146,973.821655 3730.476074,976.568909 3728.505127,982.361694 
	C3725.718506,990.551208 3722.646729,998.644531 3719.644287,1006.759460 
	C3708.101562,1037.956055 3696.462646,1069.117310 3685.003418,1100.344604 
	C3674.574951,1128.764404 3664.363037,1157.263550 3653.953613,1185.690186 
	C3653.131104,1187.935791 3651.508545,1189.888428 3649.307129,1193.564819 
	C3647.237793,1189.200195 3645.759277,1186.680054 3644.803223,1183.975098 
	C3628.595703,1138.127563 3612.458740,1092.255249 3596.293945,1046.392578 
	C3588.875732,1025.346436 3581.282227,1004.360291 3574.087158,983.238220 
	C3571.814209,976.565613 3567.970459,973.444946 3560.857910,973.836487 
	C3554.877930,974.165710 3548.864014,973.861267 3542.864990,973.864136 
	C3526.867676,973.871826 3510.868896,973.768677 3494.873535,973.958191 
	C3485.520508,974.069031 3484.556396,975.063049 3481.273438,984.033752 
	C3479.215332,989.657471 3476.851807,995.170349 3474.826660,1000.805237 
	C3465.825684,1025.849976 3456.995850,1050.956421 3447.919922,1075.973755 
	C3435.553711,1110.060425 3423.068115,1144.104370 3410.503662,1178.118652 
	C3408.745361,1182.877563 3406.246826,1187.363037 3403.112549,1194.068115 
	C3400.704346,1189.234375 3399.181641,1186.790527 3398.213623,1184.143921 
	C3382.196045,1140.351318 3366.271240,1096.524780 3350.275879,1052.724121 
	C3341.935791,1029.886230 3333.300781,1007.153381 3325.221191,984.224304 
	C3322.625977,976.859131 3318.568359,973.664612 3310.587402,973.766113 
	C3284.262939,974.100830 3257.931152,973.851379 3231.602539,973.929565 
	C3228.801758,973.937866 3226.003174,974.626404 3222.612305,975.078125 
	C3223.351562,978.420593 3223.581055,980.730713 3224.369873,982.830872 
	C3234.195801,1008.995178 3244.074463,1035.139648 3253.996826,1061.267456 
	C3263.921387,1087.401123 3273.908203,1113.510986 3283.872070,1139.629761 
	C3293.240479,1164.187012 3302.619873,1188.739990 3311.983643,1213.299194 
	C3321.938232,1239.409424 3331.884277,1265.523071 3341.824951,1291.638550 
	C3349.988281,1313.084717 3358.350586,1334.458618 3366.177734,1356.026733 
	C3368.855713,1363.406372 3373.116455,1366.473511 3380.978760,1366.324707 
	C3399.635498,1365.971313 3418.304199,1366.313965 3436.966797,1366.175659 
	C3447.185791,1366.099731 3448.104248,1365.402588 3451.503906,1355.936279 
	C3461.635498,1327.724487 3471.642090,1299.468018 3481.727783,1271.239624 
	C3494.390625,1235.798462 3507.083008,1200.367676 3520.217285,1163.476196 
M2724.767578,1030.275024 
	C2695.503418,996.514465 2659.486084,975.041809 2614.656006,969.287781 
	C2575.115723,964.212708 2538.560547,971.879272 2505.218262,994.026245 
	C2500.374756,997.243408 2495.446289,1000.332581 2488.895508,1004.551147 
	C2488.571777,995.939819 2488.507568,989.389038 2488.029785,982.868591 
	C2487.547119,976.279419 2485.932617,974.731140 2479.577637,974.037048 
	C2477.267578,973.784729 2474.918701,973.838989 2472.587402,973.837402 
	C2450.927979,973.822510 2429.268311,973.785706 2407.608887,973.838013 
	C2392.479980,973.874573 2391.888672,974.523376 2391.769775,989.655212 
	C2391.767334,989.988464 2391.767090,990.321655 2391.767090,990.654907 
	C2391.766846,1110.282471 2391.765625,1229.909912 2391.778809,1349.537476 
	C2391.779297,1352.533691 2391.873047,1355.534302 2392.054443,1358.524902 
	C2392.344971,1363.313354 2395.082275,1365.729126 2399.758545,1365.994629 
	C2402.750488,1366.164551 2405.751709,1366.233154 2408.748779,1366.236084 
	C2429.408691,1366.256348 2450.068604,1366.273071 2470.728516,1366.239868 
	C2487.952148,1366.212158 2488.217285,1365.979248 2488.223145,1349.060669 
	C2488.248291,1277.084229 2488.235352,1205.107788 2488.238281,1133.131348 
	C2488.238525,1129.132690 2488.494873,1125.117065 2488.213379,1121.139038 
	C2487.677246,1113.557983 2490.335938,1107.484863 2496.041992,1102.588623 
	C2502.857178,1096.740479 2509.079590,1090.009399 2516.512695,1085.107056 
	C2543.487549,1067.316895 2572.259766,1056.239136 2605.154297,1066.188721 
	C2630.920654,1073.982056 2649.592529,1089.676880 2657.830566,1116.111450 
	C2662.726807,1131.823242 2664.319092,1147.963989 2664.287842,1164.391968 
	C2664.166260,1228.370728 2664.214844,1292.349976 2664.288086,1356.328979 
	C2664.301758,1368.367188 2665.612549,1369.672363 2677.495850,1369.721802 
	C2703.153564,1369.828369 2728.812500,1369.840210 2754.469971,1369.705566 
	C2766.178711,1369.644165 2767.753174,1368.136597 2767.686768,1356.213623 
	C2767.299561,1286.594727 2767.351562,1216.965576 2766.059082,1147.362183 
	C2765.265625,1104.628296 2751.866699,1065.595703 2724.767578,1030.275024 
M1735.117188,1361.850708 
	C1751.753784,1368.090942 1768.835815,1372.233765 1786.708130,1372.104736 
	C1806.658081,1371.960815 1826.653931,1373.487427 1846.493530,1369.642334 
	C1896.152588,1360.018188 1935.545776,1333.939697 1966.985229,1295.002563 
	C1969.419556,1291.987671 1971.309570,1288.533203 1973.968750,1284.500122 
	C1950.196289,1263.569702 1926.560913,1243.925049 1901.844971,1224.436035 
	C1899.039185,1227.644043 1897.049316,1229.786011 1895.205688,1232.046997 
	C1869.248657,1263.879639 1836.232300,1279.331665 1794.969360,1273.806396 
	C1764.261230,1269.694458 1739.415161,1255.173096 1723.801758,1227.710815 
	C1703.977173,1192.841309 1702.487183,1156.712524 1719.454468,1120.322388 
	C1738.580688,1079.301880 1781.871948,1056.681274 1826.476807,1063.994995 
	C1851.526489,1068.102173 1871.816895,1080.769775 1888.506836,1099.592163 
	C1894.822266,1106.714600 1896.877441,1107.060913 1903.898071,1100.466919 
	C1921.621216,1083.820923 1939.161865,1066.979126 1956.647461,1050.083008 
	C1962.214844,1044.703125 1962.297363,1042.733154 1956.987915,1036.598145 
	C1952.198364,1031.063843 1947.013184,1025.841675 1941.717285,1020.780518 
	C1892.405273,973.654480 1833.409302,957.302490 1766.904663,967.664917 
	C1733.206909,972.915527 1702.713989,986.477356 1676.077271,1008.573486 
	C1656.069214,1025.170654 1639.487061,1044.355591 1626.983276,1067.013794 
	C1603.392456,1109.762939 1597.556274,1155.676270 1604.176025,1203.431030 
	C1609.881104,1244.586548 1628.121826,1280.122192 1655.863647,1310.597168 
	C1677.269043,1334.111450 1703.685547,1350.616211 1735.117188,1361.850708 
M75.175705,1359.836182 
	C105.428177,1371.031128 136.391373,1377.078003 168.942261,1376.078857 
	C188.868851,1375.467041 207.966110,1372.343262 226.617935,1365.828369 
	C248.960220,1358.024414 269.270630,1346.536621 285.247528,1328.931030 
	C307.181061,1304.761475 316.437195,1275.842773 313.988708,1243.307251 
	C311.874023,1215.207520 300.929840,1191.034424 280.072205,1171.971924 
	C265.685059,1158.822998 248.824173,1149.177734 230.695770,1142.144287 
	C209.275787,1133.833618 187.508011,1126.423706 166.010864,1118.305786 
	C155.437759,1114.313110 144.730743,1110.281372 136.612930,1101.845703 
	C128.221588,1093.125732 127.337990,1079.186035 135.181519,1070.021851 
	C138.554718,1066.080688 142.892303,1062.399536 147.551025,1060.232788 
	C160.175797,1054.360962 173.735672,1052.409058 187.531891,1054.453857 
	C201.411560,1056.510986 214.843643,1060.273926 227.131729,1067.449097 
	C232.873367,1070.801636 238.822464,1073.800171 244.692276,1076.931641 
	C250.986511,1080.289429 252.857895,1079.862061 256.892456,1073.607910 
	C261.045410,1067.170288 264.983459,1060.593628 269.003632,1054.070557 
	C277.217957,1040.742310 285.539459,1027.478149 293.593842,1014.053833 
	C299.073669,1004.920593 298.553528,1003.091248 289.461395,997.278748 
	C284.976624,994.411621 280.429688,991.528809 275.603638,989.326355 
	C236.491531,971.476990 195.815735,961.942688 152.465042,965.648743 
	C123.557549,968.119934 97.246368,977.316650 73.798988,994.290222 
	C53.323212,1009.112671 38.816406,1028.320679 30.888002,1052.682251 
	C25.903551,1067.998047 25.298117,1083.514282 26.590479,1099.083740 
	C28.449558,1121.480713 38.280727,1140.767822 54.185566,1156.359619 
	C70.066704,1171.928345 89.561249,1182.249390 110.167793,1190.264771 
	C130.939911,1198.344482 152.034378,1205.607544 172.706482,1213.926880 
	C181.591095,1217.502319 190.399521,1221.964478 198.135773,1227.555176 
	C215.747559,1240.282837 213.714264,1264.014893 194.756531,1274.572144 
	C182.541992,1281.374146 169.573105,1284.983398 155.513855,1284.114868 
	C124.842987,1282.220215 96.933716,1272.363037 71.648788,1254.964478 
	C67.595299,1252.175415 63.543194,1249.384277 58.712696,1246.058594 
	C56.263237,1249.202271 53.994175,1251.570679 52.349075,1254.313232 
	C40.871086,1273.447876 29.613819,1292.714844 18.101473,1311.828491 
	C9.785103,1325.635864 13.104438,1325.049316 23.217678,1333.324951 
	C23.471111,1333.532471 23.801712,1333.643066 24.086441,1333.815308 
	C40.039047,1343.468506 56.006554,1353.092529 75.175705,1359.836182 
M1266.229980,1323.357788 
	C1280.675293,1290.786011 1295.175171,1258.238403 1309.552734,1225.636719 
	C1330.244507,1178.717285 1350.836548,1131.753906 1371.491699,1084.818359 
	C1386.111450,1051.597290 1400.790283,1018.402344 1415.358521,985.158691 
	C1416.612061,982.298035 1417.231567,979.159424 1418.506470,974.961914 
	C1413.844238,974.505615 1410.637329,973.927429 1407.429199,973.919250 
	C1380.106567,973.849976 1352.779907,974.137329 1325.462769,973.740356 
	C1316.723633,973.613403 1312.073120,977.212769 1308.989136,985.019409 
	C1303.854858,998.015869 1298.060303,1010.751465 1292.541260,1023.595825 
	C1281.775269,1048.651855 1270.944946,1073.680420 1260.256226,1098.769287 
	C1246.031982,1132.156494 1231.962158,1165.609497 1217.688599,1198.975586 
	C1216.219604,1202.409668 1215.012207,1206.517334 1209.878906,1207.810669 
	C1208.402222,1205.025024 1206.874268,1202.525757 1205.700684,1199.869995 
	C1191.703735,1168.194824 1177.742432,1136.503662 1163.805908,1104.801758 
	C1146.116455,1064.563232 1128.313599,1024.373169 1110.915283,984.009033 
	C1107.653687,976.442139 1103.044800,973.628479 1094.918823,973.739990 
	C1068.267456,974.105774 1041.607666,973.844482 1014.951416,973.906738 
	C1011.763977,973.914185 1008.577759,974.429382 1003.936340,974.836975 
	C1005.676025,979.428467 1006.783752,982.801086 1008.205444,986.035767 
	C1025.617188,1025.650269 1043.118164,1065.225464 1060.507690,1104.849731 
	C1076.157593,1140.510010 1091.608765,1176.257690 1107.312866,1211.894043 
	C1122.881714,1247.223511 1138.657837,1282.461548 1154.340576,1317.740723 
	C1160.286743,1331.116821 1166.295776,1344.465698 1172.135376,1357.888184 
	C1174.496094,1363.314209 1177.996460,1366.313477 1184.285034,1366.243652 
	C1202.608521,1366.039917 1220.936157,1366.096191 1239.261230,1366.192871 
	C1244.941895,1366.222778 1248.521729,1363.965210 1250.759644,1358.582153 
	C1255.487793,1347.209473 1260.648804,1336.016724 1266.229980,1323.357788 
M1558.234253,1211.000000 
	C1558.233521,1138.674316 1558.235107,1066.348755 1558.225830,994.023071 
	C1558.225342,990.357666 1558.332397,986.676270 1558.039429,983.030396 
	C1557.507568,976.409119 1555.926880,974.755127 1549.695801,974.087097 
	C1547.054688,973.803894 1544.369629,973.880249 1541.704468,973.878601 
	C1518.706909,973.864624 1495.709351,973.841736 1472.711792,973.879333 
	C1456.183350,973.906433 1455.785767,974.268494 1455.782959,990.615295 
	C1455.761719,1110.269287 1455.770386,1229.923218 1455.779297,1349.577148 
	C1455.779541,1352.242310 1455.710449,1354.926514 1455.988770,1357.568726 
	C1456.659912,1363.944214 1458.213379,1365.413574 1464.806152,1366.056030 
	C1467.121338,1366.281494 1469.467529,1366.231812 1471.799561,1366.232910 
	C1495.130371,1366.244507 1518.461426,1366.276611 1541.792114,1366.228394 
	C1557.650513,1366.195557 1558.198242,1365.675537 1558.212891,1349.985474 
	C1558.255859,1304.323608 1558.232666,1258.661865 1558.234253,1211.000000 
M1472.885742,795.679565 
	C1464.295898,799.348938 1458.077759,806.043762 1452.858032,813.252380 
	C1433.946899,839.368286 1435.245850,877.219177 1457.953003,902.753967 
	C1472.059326,918.616760 1490.352661,923.918152 1511.071167,922.140442 
	C1538.482300,919.788330 1558.381470,906.356140 1568.118896,880.561646 
	C1577.508789,855.687561 1573.664307,832.105835 1556.297729,811.416138 
	C1536.708984,788.079285 1500.468628,781.828430 1472.885742,795.679565 
z"/>
<path fill="#153C3E" opacity="1.000000" stroke="none" 
	d="
M3519.989990,1164.204346 
	C3507.083008,1200.367676 3494.390625,1235.798462 3481.727783,1271.239624 
	C3471.642090,1299.468018 3461.635498,1327.724487 3451.503906,1355.936279 
	C3448.104248,1365.402588 3447.185791,1366.099731 3436.966797,1366.175659 
	C3418.304199,1366.313965 3399.635498,1365.971313 3380.978760,1366.324707 
	C3373.116455,1366.473511 3368.855713,1363.406372 3366.177734,1356.026733 
	C3358.350586,1334.458618 3349.988281,1313.084717 3341.824951,1291.638550 
	C3331.884277,1265.523071 3321.938232,1239.409424 3311.983643,1213.299194 
	C3302.619873,1188.739990 3293.240479,1164.187012 3283.872070,1139.629761 
	C3273.908203,1113.510986 3263.921387,1087.401123 3253.996826,1061.267456 
	C3244.074463,1035.139648 3234.195801,1008.995178 3224.369873,982.830872 
	C3223.581055,980.730713 3223.351562,978.420593 3222.612305,975.078125 
	C3226.003174,974.626404 3228.801758,973.937866 3231.602539,973.929565 
	C3257.931152,973.851379 3284.262939,974.100830 3310.587402,973.766113 
	C3318.568359,973.664612 3322.625977,976.859131 3325.221191,984.224304 
	C3333.300781,1007.153381 3341.935791,1029.886230 3350.275879,1052.724121 
	C3366.271240,1096.524780 3382.196045,1140.351318 3398.213623,1184.143921 
	C3399.181641,1186.790527 3400.704346,1189.234375 3403.112549,1194.068115 
	C3406.246826,1187.363037 3408.745361,1182.877563 3410.503662,1178.118652 
	C3423.068115,1144.104370 3435.553711,1110.060425 3447.919922,1075.973755 
	C3456.995850,1050.956421 3465.825684,1025.849976 3474.826660,1000.805237 
	C3476.851807,995.170349 3479.215332,989.657471 3481.273438,984.033752 
	C3484.556396,975.063049 3485.520508,974.069031 3494.873535,973.958191 
	C3510.868896,973.768677 3526.867676,973.871826 3542.864990,973.864136 
	C3548.864014,973.861267 3554.877930,974.165710 3560.857910,973.836487 
	C3567.970459,973.444946 3571.814209,976.565613 3574.087158,983.238220 
	C3581.282227,1004.360291 3588.875732,1025.346436 3596.293945,1046.392578 
	C3612.458740,1092.255249 3628.595703,1138.127563 3644.803223,1183.975098 
	C3645.759277,1186.680054 3647.237793,1189.200195 3649.307129,1193.564819 
	C3651.508545,1189.888428 3653.131104,1187.935791 3653.953613,1185.690186 
	C3664.363037,1157.263550 3674.574951,1128.764404 3685.003418,1100.344604 
	C3696.462646,1069.117310 3708.101562,1037.956055 3719.644287,1006.759460 
	C3722.646729,998.644531 3725.718506,990.551208 3728.505127,982.361694 
	C3730.476074,976.568909 3734.025146,973.821655 3740.332520,973.857788 
	C3768.326660,974.017822 3796.322998,973.805786 3824.316650,974.014771 
	C3832.615234,974.076721 3833.881592,976.056885 3830.962402,983.884338 
	C3820.954590,1010.722961 3810.739258,1037.484619 3800.559326,1064.258789 
	C3775.701904,1129.638062 3750.834717,1195.013916 3725.940186,1260.379028 
	C3713.967041,1291.816895 3701.972900,1323.246948 3689.884033,1354.640259 
	C3685.640625,1365.659790 3684.876221,1366.145020 3673.041260,1366.206299 
	C3655.044922,1366.299683 3637.044678,1366.030396 3619.052002,1366.304932 
	C3611.789795,1366.415649 3607.091797,1364.000854 3604.562256,1356.905151 
	C3599.984619,1344.063599 3594.909668,1331.400269 3590.164795,1318.616943 
	C3576.389404,1281.502808 3562.644287,1244.377441 3548.951904,1207.232544 
	C3543.429443,1192.251465 3538.165527,1177.174438 3532.578125,1162.218018 
	C3531.255615,1158.678589 3529.104492,1155.448975 3527.334229,1152.076904 
	C3526.573975,1152.073608 3525.813477,1152.070312 3525.053223,1152.067017 
	C3523.441162,1155.869995 3521.829346,1159.673096 3519.989990,1164.204346 
z"/>
<path fill="#63B6A2" opacity="1.000000" stroke="none" 
	d="
M2898.351807,1374.773315 
	C2883.849609,1373.122681 2874.684082,1363.365479 2866.098633,1353.073975 
	C2833.184814,1313.619751 2814.430420,1268.275024 2809.556641,1217.073608 
	C2803.941895,1158.088501 2817.039795,1103.746216 2851.700195,1055.699219 
	C2886.493164,1007.468323 2933.633789,977.611572 2992.798096,968.010925 
	C3002.605957,966.419373 3012.645508,966.256775 3023.788086,965.401123 
	C3024.998047,965.368347 3025.516602,965.249390 3025.516602,965.249390 
	C3026.628418,965.264709 3027.740479,965.280090 3030.328613,965.338623 
	C3033.107178,965.387024 3034.409912,965.392151 3035.712402,965.397339 
	C3085.615479,967.116516 3129.364258,984.981628 3166.601807,1017.675598 
	C3211.940918,1057.483032 3238.999023,1107.879639 3245.953857,1167.858398 
	C3254.102539,1238.134033 3233.583740,1299.986450 3187.210938,1353.390747 
	C3179.665771,1362.080200 3171.524414,1369.678711 3160.571045,1373.731201 
	C3148.841797,1378.070679 3137.623291,1376.872192 3127.164795,1370.076660 
	C3117.682617,1363.915527 3108.605957,1357.108398 3098.963867,1351.218872 
	C3054.534912,1324.079956 2980.793701,1327.077759 2937.374268,1363.982666 
	C2930.285645,1370.007812 2921.947021,1373.015869 2911.856934,1374.996338 
	C2910.289551,1375.398071 2909.928467,1375.638672 2909.627686,1375.970215 
	C2907.089355,1375.916504 2904.551025,1375.862793 2900.948242,1375.593018 
	C2899.443848,1374.996338 2898.933105,1374.795166 2898.351807,1374.773315 
M2929.456543,1134.599976 
	C2917.629639,1155.072632 2912.844238,1177.241211 2913.724609,1200.717285 
	C2916.157715,1265.620483 2961.773193,1310.974487 3023.607910,1312.020142 
	C3072.915527,1312.853760 3114.621826,1283.898193 3130.133301,1237.151001 
	C3137.430664,1215.158569 3138.387451,1192.746216 3134.067383,1170.120972 
	C3124.997803,1122.621704 3087.189697,1080.576294 3026.022217,1080.512207 
	C2984.830811,1080.468994 2951.957520,1097.292603 2929.456543,1134.599976 
z"/>
<path fill="#153C3E" opacity="1.000000" stroke="none" 
	d="
M639.608398,1258.324341 
	C644.609375,1264.090088 649.451782,1270.003540 654.651855,1275.583740 
	C661.010925,1282.407593 667.751221,1288.874756 674.176392,1295.638794 
	C680.585938,1302.386230 680.575500,1303.665039 674.119812,1310.433350 
	C652.600281,1332.995117 627.002380,1349.082520 597.872498,1360.280151 
	C568.526794,1371.560791 538.271057,1373.203491 507.438080,1372.154175 
	C465.548553,1370.728394 428.772919,1355.431152 396.921295,1329.256348 
	C371.606079,1308.452637 353.467468,1281.831055 342.189697,1250.683960 
	C334.524841,1229.515137 330.423096,1207.946289 329.331909,1185.404785 
	C328.066223,1159.257080 329.202332,1133.540894 336.135773,1108.261719 
	C344.989899,1075.979858 360.371643,1047.325806 382.822693,1022.243469 
	C409.378235,992.575439 442.165222,973.510010 480.990295,967.229797 
	C538.155029,957.983032 589.456543,971.893433 631.838135,1012.921875 
	C665.467712,1045.477783 683.839905,1085.812256 689.948120,1131.760742 
	C691.912231,1146.535522 691.977051,1161.626343 692.014404,1176.574829 
	C692.047913,1189.979370 687.871765,1193.704956 674.444641,1193.718506 
	C598.796387,1193.794800 523.147949,1193.765259 447.499542,1193.776123 
	C443.833923,1193.776611 440.161926,1193.685669 436.503937,1193.863892 
	C427.854797,1194.285278 426.369385,1195.930542 427.921722,1204.295654 
	C430.385742,1217.573608 435.579987,1229.917969 443.030975,1241.057739 
	C462.996185,1270.907715 491.509796,1286.918457 527.104919,1287.222046 
	C554.678894,1287.457275 580.114075,1278.165527 602.037476,1260.741333 
	C609.055298,1255.163696 615.876404,1249.338745 623.917114,1243.944824 
	C629.900696,1248.949829 634.754578,1253.637085 639.608398,1258.324341 
M471.618500,1064.469849 
	C457.479584,1074.039673 447.018158,1086.668579 440.110992,1102.271973 
	C433.649139,1116.869507 435.467133,1119.836304 451.276428,1119.854126 
	C493.181305,1119.901245 535.086304,1119.872070 576.991211,1119.862305 
	C579.318176,1119.861694 581.665405,1119.938110 583.968323,1119.674438 
	C590.499146,1118.926880 592.218933,1116.820435 590.329407,1110.321289 
	C583.087097,1085.410156 568.721313,1066.153076 544.289612,1055.971924 
	C519.256409,1045.540161 495.442993,1049.886963 471.618500,1064.469849 
z"/>
<path fill="#153C3E" opacity="1.000000" stroke="none" 
	d="
M2123.878662,1266.364990 
	C2157.834229,1294.188110 2195.071533,1296.560913 2234.511963,1280.305664 
	C2240.928711,1277.660889 2246.804932,1273.703979 2253.962891,1269.691772 
	C2256.101318,1268.143433 2257.207764,1267.256958 2258.314209,1266.370361 
	C2259.255615,1265.760010 2260.197021,1265.149658 2262.089355,1263.833740 
	C2265.547607,1260.811035 2268.054688,1258.494141 2270.561768,1256.177246 
	C2274.147461,1252.892578 2277.733154,1249.607910 2282.356445,1246.135986 
	C2287.525879,1249.694946 2291.765137,1253.330444 2295.770264,1257.207886 
	C2308.518066,1269.549561 2321.178467,1281.981201 2333.872803,1294.378174 
	C2340.960938,1303.335083 2340.964600,1303.716309 2333.312500,1311.656372 
	C2301.411621,1344.757935 2262.240234,1365.407715 2217.184082,1370.911987 
	C2173.988525,1376.189331 2130.798584,1373.339233 2090.916504,1351.573853 
	C2047.816772,1328.052612 2018.537109,1293.462646 2001.564453,1247.359985 
	C1990.098022,1216.213623 1989.174805,1184.325195 1989.882446,1151.954590 
	C1990.767212,1111.494751 2003.687256,1074.752808 2026.023926,1041.603149 
	C2053.727051,1000.489258 2092.373535,974.414490 2141.620361,966.940247 
	C2203.855957,957.494751 2257.889160,975.084351 2300.482178,1022.273193 
	C2331.335205,1056.455078 2347.902832,1097.407959 2351.975830,1143.273438 
	C2352.974609,1154.518799 2353.775635,1165.859863 2353.473389,1177.124878 
	C2353.000732,1194.748413 2351.032959,1196.235474 2333.428223,1196.239990 
	C2256.813477,1196.259155 2180.198730,1196.243652 2103.583984,1196.256836 
	C2086.519775,1196.259766 2085.560303,1197.454712 2089.965332,1213.794678 
	C2093.919434,1228.462769 2100.542969,1241.774170 2111.506348,1254.240723 
	C2116.202393,1258.950562 2120.040527,1262.657715 2123.878662,1266.364990 
M2132.116699,1060.908325 
	C2114.947510,1071.047241 2102.037354,1084.986694 2094.365967,1103.512817 
	C2093.101562,1106.566040 2092.195801,1109.813599 2091.524170,1113.054077 
	C2090.785889,1116.615967 2092.606445,1118.834229 2096.132812,1119.431763 
	C2098.090820,1119.763428 2100.111328,1119.833130 2102.103760,1119.834106 
	C2146.749268,1119.855591 2191.394531,1119.906372 2236.040039,1119.809204 
	C2246.036133,1119.787476 2248.037598,1117.265137 2245.157959,1107.612183 
	C2238.895508,1086.620117 2226.662842,1069.999756 2207.150146,1059.537964 
	C2182.569336,1046.358765 2157.886963,1047.699341 2132.116699,1060.908325 
z"/>
<path fill="#153C3E" opacity="1.000000" stroke="none" 
	d="
M2725.236084,1030.809570 
	C2751.866699,1065.595703 2765.265625,1104.628296 2766.059082,1147.362183 
	C2767.351562,1216.965576 2767.299561,1286.594727 2767.686768,1356.213623 
	C2767.753174,1368.136597 2766.178711,1369.644165 2754.469971,1369.705566 
	C2728.812500,1369.840210 2703.153564,1369.828369 2677.495850,1369.721802 
	C2665.612549,1369.672363 2664.301758,1368.367188 2664.288086,1356.328979 
	C2664.214844,1292.349976 2664.166260,1228.370728 2664.287842,1164.391968 
	C2664.319092,1147.963989 2662.726807,1131.823242 2657.830566,1116.111450 
	C2649.592529,1089.676880 2630.920654,1073.982056 2605.154297,1066.188721 
	C2572.259766,1056.239136 2543.487549,1067.316895 2516.512695,1085.107056 
	C2509.079590,1090.009399 2502.857178,1096.740479 2496.041992,1102.588623 
	C2490.335938,1107.484863 2487.677246,1113.557983 2488.213379,1121.139038 
	C2488.494873,1125.117065 2488.238525,1129.132690 2488.238281,1133.131348 
	C2488.235352,1205.107788 2488.248291,1277.084229 2488.223145,1349.060669 
	C2488.217285,1365.979248 2487.952148,1366.212158 2470.728516,1366.239868 
	C2450.068604,1366.273071 2429.408691,1366.256348 2408.748779,1366.236084 
	C2405.751709,1366.233154 2402.750488,1366.164551 2399.758545,1365.994629 
	C2395.082275,1365.729126 2392.344971,1363.313354 2392.054443,1358.524902 
	C2391.873047,1355.534302 2391.779297,1352.533691 2391.778809,1349.537476 
	C2391.765625,1229.909912 2391.766846,1110.282471 2391.767090,990.654907 
	C2391.767090,990.321655 2391.767334,989.988464 2391.769775,989.655212 
	C2391.888672,974.523376 2392.479980,973.874573 2407.608887,973.838013 
	C2429.268311,973.785706 2450.927979,973.822510 2472.587402,973.837402 
	C2474.918701,973.838989 2477.267578,973.784729 2479.577637,974.037048 
	C2485.932617,974.731140 2487.547119,976.279419 2488.029785,982.868591 
	C2488.507568,989.389038 2488.571777,995.939819 2488.895508,1004.551147 
	C2495.446289,1000.332581 2500.374756,997.243408 2505.218262,994.026245 
	C2538.560547,971.879272 2575.115723,964.212708 2614.656006,969.287781 
	C2659.486084,975.041809 2695.503418,996.514465 2725.236084,1030.809570 
z"/>
<path fill="#153C3E" opacity="1.000000" stroke="none" 
	d="
M1734.358887,1361.650879 
	C1703.685547,1350.616211 1677.269043,1334.111450 1655.863647,1310.597168 
	C1628.121826,1280.122192 1609.881104,1244.586548 1604.176025,1203.431030 
	C1597.556274,1155.676270 1603.392456,1109.762939 1626.983276,1067.013794 
	C1639.487061,1044.355591 1656.069214,1025.170654 1676.077271,1008.573486 
	C1702.713989,986.477356 1733.206909,972.915527 1766.904663,967.664917 
	C1833.409302,957.302490 1892.405273,973.654480 1941.717285,1020.780518 
	C1947.013184,1025.841675 1952.198364,1031.063843 1956.987915,1036.598145 
	C1962.297363,1042.733154 1962.214844,1044.703125 1956.647461,1050.083008 
	C1939.161865,1066.979126 1921.621216,1083.820923 1903.898071,1100.466919 
	C1896.877441,1107.060913 1894.822266,1106.714600 1888.506836,1099.592163 
	C1871.816895,1080.769775 1851.526489,1068.102173 1826.476807,1063.994995 
	C1781.871948,1056.681274 1738.580688,1079.301880 1719.454468,1120.322388 
	C1702.487183,1156.712524 1703.977173,1192.841309 1723.801758,1227.710815 
	C1739.415161,1255.173096 1764.261230,1269.694458 1794.969360,1273.806396 
	C1836.232300,1279.331665 1869.248657,1263.879639 1895.205688,1232.046997 
	C1897.049316,1229.786011 1899.039185,1227.644043 1901.844971,1224.436035 
	C1926.560913,1243.925049 1950.196289,1263.569702 1973.968750,1284.500122 
	C1971.309570,1288.533203 1969.419556,1291.987671 1966.985229,1295.002563 
	C1935.545776,1333.939697 1896.152588,1360.018188 1846.493530,1369.642334 
	C1826.653931,1373.487427 1806.658081,1371.960815 1786.708130,1372.104736 
	C1768.835815,1372.233765 1751.753784,1368.090942 1734.358887,1361.650879 
z"/>
<path fill="#153C3E" opacity="1.000000" stroke="none" 
	d="
M74.426674,1359.626465 
	C56.006554,1353.092529 40.039047,1343.468506 24.086441,1333.815308 
	C23.801712,1333.643066 23.471111,1333.532471 23.217678,1333.324951 
	C13.104438,1325.049316 9.785103,1325.635864 18.101473,1311.828491 
	C29.613819,1292.714844 40.871086,1273.447876 52.349075,1254.313232 
	C53.994175,1251.570679 56.263237,1249.202271 58.712696,1246.058594 
	C63.543194,1249.384277 67.595299,1252.175415 71.648788,1254.964478 
	C96.933716,1272.363037 124.842987,1282.220215 155.513855,1284.114868 
	C169.573105,1284.983398 182.541992,1281.374146 194.756531,1274.572144 
	C213.714264,1264.014893 215.747559,1240.282837 198.135773,1227.555176 
	C190.399521,1221.964478 181.591095,1217.502319 172.706482,1213.926880 
	C152.034378,1205.607544 130.939911,1198.344482 110.167793,1190.264771 
	C89.561249,1182.249390 70.066704,1171.928345 54.185566,1156.359619 
	C38.280727,1140.767822 28.449558,1121.480713 26.590479,1099.083740 
	C25.298117,1083.514282 25.903551,1067.998047 30.888002,1052.682251 
	C38.816406,1028.320679 53.323212,1009.112671 73.798988,994.290222 
	C97.246368,977.316650 123.557549,968.119934 152.465042,965.648743 
	C195.815735,961.942688 236.491531,971.476990 275.603638,989.326355 
	C280.429688,991.528809 284.976624,994.411621 289.461395,997.278748 
	C298.553528,1003.091248 299.073669,1004.920593 293.593842,1014.053833 
	C285.539459,1027.478149 277.217957,1040.742310 269.003632,1054.070557 
	C264.983459,1060.593628 261.045410,1067.170288 256.892456,1073.607910 
	C252.857895,1079.862061 250.986511,1080.289429 244.692276,1076.931641 
	C238.822464,1073.800171 232.873367,1070.801636 227.131729,1067.449097 
	C214.843643,1060.273926 201.411560,1056.510986 187.531891,1054.453857 
	C173.735672,1052.409058 160.175797,1054.360962 147.551025,1060.232788 
	C142.892303,1062.399536 138.554718,1066.080688 135.181519,1070.021851 
	C127.337990,1079.186035 128.221588,1093.125732 136.612930,1101.845703 
	C144.730743,1110.281372 155.437759,1114.313110 166.010864,1118.305786 
	C187.508011,1126.423706 209.275787,1133.833618 230.695770,1142.144287 
	C248.824173,1149.177734 265.685059,1158.822998 280.072205,1171.971924 
	C300.929840,1191.034424 311.874023,1215.207520 313.988708,1243.307251 
	C316.437195,1275.842773 307.181061,1304.761475 285.247528,1328.931030 
	C269.270630,1346.536621 248.960220,1358.024414 226.617935,1365.828369 
	C207.966110,1372.343262 188.868851,1375.467041 168.942261,1376.078857 
	C136.391373,1377.078003 105.428177,1371.031128 74.426674,1359.626465 
z"/>
<path fill="#153C3E" opacity="1.000000" stroke="none" 
	d="
M1265.931152,1324.053955 
	C1260.648804,1336.016724 1255.487793,1347.209473 1250.759644,1358.582153 
	C1248.521729,1363.965210 1244.941895,1366.222778 1239.261230,1366.192871 
	C1220.936157,1366.096191 1202.608521,1366.039917 1184.285034,1366.243652 
	C1177.996460,1366.313477 1174.496094,1363.314209 1172.135376,1357.888184 
	C1166.295776,1344.465698 1160.286743,1331.116821 1154.340576,1317.740723 
	C1138.657837,1282.461548 1122.881714,1247.223511 1107.312866,1211.894043 
	C1091.608765,1176.257690 1076.157593,1140.510010 1060.507690,1104.849731 
	C1043.118164,1065.225464 1025.617188,1025.650269 1008.205444,986.035767 
	C1006.783752,982.801086 1005.676025,979.428467 1003.936340,974.836975 
	C1008.577759,974.429382 1011.763977,973.914185 1014.951416,973.906738 
	C1041.607666,973.844482 1068.267456,974.105774 1094.918823,973.739990 
	C1103.044800,973.628479 1107.653687,976.442139 1110.915283,984.009033 
	C1128.313599,1024.373169 1146.116455,1064.563232 1163.805908,1104.801758 
	C1177.742432,1136.503662 1191.703735,1168.194824 1205.700684,1199.869995 
	C1206.874268,1202.525757 1208.402222,1205.025024 1209.878906,1207.810669 
	C1215.012207,1206.517334 1216.219604,1202.409668 1217.688599,1198.975586 
	C1231.962158,1165.609497 1246.031982,1132.156494 1260.256226,1098.769287 
	C1270.944946,1073.680420 1281.775269,1048.651855 1292.541260,1023.595825 
	C1298.060303,1010.751465 1303.854858,998.015869 1308.989136,985.019409 
	C1312.073120,977.212769 1316.723633,973.613403 1325.462769,973.740356 
	C1352.779907,974.137329 1380.106567,973.849976 1407.429199,973.919250 
	C1410.637329,973.927429 1413.844238,974.505615 1418.506470,974.961914 
	C1417.231567,979.159424 1416.612061,982.298035 1415.358521,985.158691 
	C1400.790283,1018.402344 1386.111450,1051.597290 1371.491699,1084.818359 
	C1350.836548,1131.753906 1330.244507,1178.717285 1309.552734,1225.636719 
	C1295.175171,1258.238403 1280.675293,1290.786011 1265.931152,1324.053955 
z"/>
<path fill="#153C3E" opacity="1.000000" stroke="none" 
	d="
M838.745422,1003.151367 
	C847.196960,997.903198 855.383057,992.155640 864.147827,987.496826 
	C895.613892,970.771545 928.548523,962.509460 964.169128,971.680054 
	C973.000488,973.953735 974.059814,974.858521 974.117920,983.793091 
	C974.289001,1010.109375 974.302185,1036.428101 974.126770,1062.744263 
	C974.061279,1072.563721 971.338867,1074.546753 961.892700,1072.888550 
	C959.600342,1072.486206 957.293640,1072.153931 955.015930,1071.681763 
	C911.412659,1062.641479 876.078125,1077.800415 846.048218,1108.742065 
	C840.991821,1113.951904 839.724182,1120.105957 839.743225,1127.031128 
	C839.835938,1160.677368 839.767090,1194.323975 839.763123,1227.970459 
	C839.758484,1267.280273 839.763733,1306.589966 839.757812,1345.899780 
	C839.757263,1349.230835 839.848083,1352.570557 839.647522,1355.891235 
	C839.155334,1364.042969 837.509888,1366.038940 829.396423,1366.095581 
	C801.748352,1366.288574 774.097046,1366.290283 746.449036,1366.087036 
	C738.436768,1366.028076 736.829773,1363.992310 736.343506,1355.736938 
	C736.167419,1352.747803 736.242249,1349.742432 736.242126,1346.744507 
	C736.238220,1228.815186 736.234619,1110.885864 736.243164,992.956604 
	C736.244507,973.882507 736.270630,973.873413 755.807861,973.863220 
	C776.462158,973.852417 797.116455,973.856506 817.770752,973.867126 
	C820.768311,973.868652 823.778259,973.784302 826.761047,974.015808 
	C833.822937,974.564148 835.569031,976.149841 836.040527,983.069275 
	C836.424988,988.712158 836.316406,994.388550 836.521973,1001.247681 
	C837.326782,1002.680664 838.036072,1002.916016 838.745422,1003.151367 
z"/>
<path fill="#153C3E" opacity="1.000000" stroke="none" 
	d="
M1558.234741,1212.000000 
	C1558.232666,1258.661865 1558.255859,1304.323608 1558.212891,1349.985474 
	C1558.198242,1365.675537 1557.650513,1366.195557 1541.792114,1366.228394 
	C1518.461426,1366.276611 1495.130371,1366.244507 1471.799561,1366.232910 
	C1469.467529,1366.231812 1467.121338,1366.281494 1464.806152,1366.056030 
	C1458.213379,1365.413574 1456.659912,1363.944214 1455.988770,1357.568726 
	C1455.710449,1354.926514 1455.779541,1352.242310 1455.779297,1349.577148 
	C1455.770386,1229.923218 1455.761719,1110.269287 1455.782959,990.615295 
	C1455.785767,974.268494 1456.183350,973.906433 1472.711792,973.879333 
	C1495.709351,973.841736 1518.706909,973.864624 1541.704468,973.878601 
	C1544.369629,973.880249 1547.054688,973.803894 1549.695801,974.087097 
	C1555.926880,974.755127 1557.507568,976.409119 1558.039429,983.030396 
	C1558.332397,986.676270 1558.225342,990.357666 1558.225830,994.023071 
	C1558.235107,1066.348755 1558.233521,1138.674316 1558.234741,1212.000000 
z"/>
<path fill="#153C3E" opacity="1.000000" stroke="none" 
	d="
M1473.548950,795.316223 
	C1500.468628,781.828430 1536.708984,788.079285 1556.297729,811.416138 
	C1573.664307,832.105835 1577.508789,855.687561 1568.118896,880.561646 
	C1558.381470,906.356140 1538.482300,919.788330 1511.071167,922.140442 
	C1490.352661,923.918152 1472.059326,918.616760 1457.953003,902.753967 
	C1435.245850,877.219177 1433.946899,839.368286 1452.858032,813.252380 
	C1458.077759,806.043762 1464.295898,799.348938 1473.548950,795.316223 
z"/>
<path fill="#466F4C" opacity="1.000000" stroke="none" 
	d="
M2333.733398,1293.658447 
	C2321.178467,1281.981201 2308.518066,1269.549561 2295.770264,1257.207886 
	C2291.765137,1253.330444 2287.525879,1249.694946 2282.796143,1245.601440 
	C2286.135986,1242.467407 2289.277344,1244.717285 2291.874268,1247.269531 
	C2304.585449,1259.761963 2317.223633,1272.332764 2329.648926,1285.107910 
	C2331.593018,1287.106323 2332.309570,1290.298462 2333.733398,1293.658447 
z"/>
<path fill="#466F4C" opacity="1.000000" stroke="none" 
	d="
M639.712708,1257.763794 
	C634.754578,1253.637085 629.900696,1248.949829 624.608765,1243.725586 
	C631.884338,1243.064697 637.096619,1247.733521 639.712708,1257.763794 
z"/>
<path fill="#466F4C" opacity="1.000000" stroke="none" 
	d="
M2123.735352,1265.643311 
	C2120.040527,1262.657715 2116.202393,1258.950562 2111.990723,1254.685303 
	C2118.017334,1255.053589 2122.296875,1258.332153 2123.735352,1265.643311 
z"/>
<path fill="#466F4C" opacity="1.000000" stroke="none" 
	d="
M2269.866211,1256.326904 
	C2268.054688,1258.494141 2265.547607,1260.811035 2262.482666,1263.430786 
	C2262.945557,1259.922119 2265.121826,1257.264526 2269.866211,1256.326904 
z"/>
<path fill="#466F4C" opacity="1.000000" stroke="none" 
	d="
M2257.892578,1266.360718 
	C2257.207764,1267.256958 2256.101318,1268.143433 2254.519043,1269.260132 
	C2255.186035,1268.443848 2256.328613,1267.397461 2257.892578,1266.360718 
z"/>
<path fill="#47704C" opacity="1.000000" stroke="none" 
	d="
M3035.282471,965.288391 
	C3034.409912,965.392151 3033.107178,965.387024 3031.162354,965.315308 
	C3031.964111,965.225647 3033.408447,965.202515 3035.282471,965.288391 
z"/>
<path fill="#3B6349" opacity="1.000000" stroke="none" 
	d="
M838.198486,1002.823120 
	C838.036072,1002.916016 837.326782,1002.680664 836.572937,1002.167725 
	C836.902771,1002.091736 837.277161,1002.293335 838.198486,1002.823120 
z"/>
<path fill="#47704C" opacity="1.000000" stroke="none" 
	d="
M3025.388184,965.230835 
	C3025.516602,965.249390 3024.998047,965.368347 3024.742188,965.309204 
	C3024.486572,965.250122 3025.260010,965.212280 3025.388184,965.230835 
z"/>
<path fill="#47704C" opacity="1.000000" stroke="none" 
	d="
M2898.705078,1374.974854 
	C2898.933105,1374.795166 2899.443848,1374.996338 2900.189453,1375.667480 
	C2900.011963,1375.704834 2899.532959,1375.444214 2898.705078,1374.974854 
z"/>
<path fill="#47704C" opacity="1.000000" stroke="none" 
	d="
M2909.918213,1375.837036 
	C2909.928467,1375.638672 2910.289551,1375.398071 2911.028320,1375.203857 
	C2910.968262,1375.343872 2910.589111,1375.525391 2909.918213,1375.837036 
z"/>
<path fill="#47704C" opacity="1.000000" stroke="none" 
	d="
M2929.785156,1133.941650 
	C2951.957520,1097.292603 2984.830811,1080.468994 3026.022217,1080.512207 
	C3087.189697,1080.576294 3124.997803,1122.621704 3134.067383,1170.120972 
	C3138.387451,1192.746216 3137.430664,1215.158569 3130.133301,1237.151001 
	C3114.621826,1283.898193 3072.915527,1312.853760 3023.607910,1312.020142 
	C2961.773193,1310.974487 2916.157715,1265.620483 2913.724609,1200.717285 
	C2912.844238,1177.241211 2917.629639,1155.072632 2929.785156,1133.941650 
z"/>
<path fill="#466F4C" opacity="1.000000" stroke="none" 
	d="
M472.225708,1064.076050 
	C495.442993,1049.886963 519.256409,1045.540161 544.289612,1055.971924 
	C568.721313,1066.153076 583.087097,1085.410156 590.329407,1110.321289 
	C592.218933,1116.820435 590.499146,1118.926880 583.968323,1119.674438 
	C581.665405,1119.938110 579.318176,1119.861694 576.991211,1119.862305 
	C535.086304,1119.872070 493.181305,1119.901245 451.276428,1119.854126 
	C435.467133,1119.836304 433.649139,1116.869507 440.110992,1102.271973 
	C447.018158,1086.668579 457.479584,1074.039673 472.225708,1064.076050 
z"/>
<path fill="#466F4C" opacity="1.000000" stroke="none" 
	d="
M2132.767822,1060.553711 
	C2157.886963,1047.699341 2182.569336,1046.358765 2207.150146,1059.537964 
	C2226.662842,1069.999756 2238.895508,1086.620117 2245.157959,1107.612183 
	C2248.037598,1117.265137 2246.036133,1119.787476 2236.040039,1119.809204 
	C2191.394531,1119.906372 2146.749268,1119.855591 2102.103760,1119.834106 
	C2100.111328,1119.833130 2098.090820,1119.763428 2096.132812,1119.431763 
	C2092.606445,1118.834229 2090.785889,1116.615967 2091.524170,1113.054077 
	C2092.195801,1109.813599 2093.101562,1106.566040 2094.365967,1103.512817 
	C2102.037354,1084.986694 2114.947510,1071.047241 2132.767822,1060.553711 
z"/>
</svg>